<svg width="179.52" height="270.69" viewBox="0 0 179.52 270.69" xmlns="http://www.w3.org/2000/svg" xmlns:xlink="http://www.w3.org/1999/xlink" overflow="hidden"><defs></defs><g><path d="M163.43 49.14C143.42 31.04 112.52 32.59 94.42 52.61L166.9 118.15C185 98.13 183.45 67.23 163.43 49.14Z" fill="#FFAE2C"/><path d="M163.43 49.14C143.42 31.04 112.52 32.59 94.42 52.61L94.56 52.74C112.92 35.69 141.6 35.22 160.54 52.34 179.48 69.46 181.88 98.04 166.76 118.02L166.9 118.15C185 98.13 183.45 67.23 163.43 49.14Z" fill="#050505" opacity="0.1"/><g><defs><path d="M157.02 56.23C173.12 70.79 174.37 95.65 159.81 111.75L101.5 59.01C116.06 42.91 140.91 41.67 157.02 56.23Z" id="SVGID_1_"/></defs><clipPath id="SVGID_2_"><use width="100%" height="100%" xlink:href="#SVGID_1_"></use></clipPath><path d="M157.02 56.23C140.92 41.67 116.06 42.92 101.5 59.02L159.81 111.76C174.37 95.65 173.12 70.79 157.02 56.23Z" fill="#FFAE2C" clip-path="url(#SVGID_2_)"/><path d="M151.08 122.67 169.79 101.97 133.35 87.82Z" stroke="#F27D2F" stroke-width="2.126" stroke-miterlimit="10" fill="#E55C00" clip-path="url(#SVGID_2_)"/><path d="M126.97 82.06C125.13 84.09 125.29 87.23 127.32 89.06 129.35 90.9 132.49 90.74 134.32 88.71 136.16 86.68 136 83.54 133.97 81.71 131.94 79.87 128.81 80.03 126.97 82.06Z" fill="#FFAE2C" clip-path="url(#SVGID_2_)"/><path d="M130.4 80.43C127.67 80.57 125.56 82.9 125.7 85.63 125.84 88.36 128.17 90.47 130.9 90.33 133.64 90.19 135.74 87.86 135.6 85.13 135.46 82.4 133.14 80.3 130.4 80.43Z" fill="#FFAE2C" clip-path="url(#SVGID_2_)"/><path d="M126.97 82.06C125.13 84.09 125.29 87.23 127.32 89.06 129.35 90.9 132.49 90.74 134.32 88.71 136.16 86.68 136 83.54 133.97 81.71 131.94 79.87 128.81 80.03 126.97 82.06Z" fill="#FFAE2C" clip-path="url(#SVGID_2_)"/><path d="M130.4 80.43C127.67 80.57 125.56 82.9 125.7 85.63 125.84 88.37 128.17 90.47 130.9 90.33 133.63 90.19 135.74 87.87 135.6 85.13 135.46 82.4 133.14 80.3 130.4 80.43Z" fill="#FFAE2C" clip-path="url(#SVGID_2_)"/><path d="M91.19 68.51 127.63 82.66 109.9 47.81Z" stroke="#F27D2F" stroke-width="2.126" stroke-miterlimit="10" fill="#E55C00" clip-path="url(#SVGID_2_)"/><path d="M126.97 82.06C125.13 84.09 125.29 87.23 127.32 89.06 129.35 90.9 132.49 90.74 134.32 88.71 136.16 86.68 136 83.54 133.97 81.71 131.94 79.87 128.81 80.03 126.97 82.06Z" fill="#FFAE2C" clip-path="url(#SVGID_2_)"/><path d="M130.13 81.11 142.23 43.93 114.37 45.33Z" stroke="#FF9D45" stroke-width="2.126" stroke-miterlimit="10" fill="#EF861D" clip-path="url(#SVGID_2_)"/><path d="M130.4 80.43C127.66 80.57 125.56 82.89 125.7 85.63 125.84 88.37 128.16 90.47 130.9 90.33 133.63 90.19 135.74 87.86 135.6 85.13 135.46 82.4 133.14 80.3 130.4 80.43Z" fill="#FFAE2C" clip-path="url(#SVGID_2_)"/><path d="M133.09 82.69 167.93 64.96 147.24 46.25Z" stroke="#F27D2F" stroke-width="2.126" stroke-miterlimit="10" fill="#E55C00" clip-path="url(#SVGID_2_)"/><path d="M126.97 82.06C125.13 84.09 125.29 87.23 127.32 89.06 129.35 90.9 132.49 90.74 134.32 88.71 136.16 86.68 136 83.54 133.97 81.71 131.94 79.87 128.81 80.03 126.97 82.06Z" fill="#FFAE2C" clip-path="url(#SVGID_2_)"/><path d="M134.35 85.5 171.52 97.61 170.12 69.74Z" stroke="#FF9D45" stroke-width="2.126" stroke-miterlimit="10" fill="#EF861D" clip-path="url(#SVGID_2_)"/><path d="M130.4 80.43C127.67 80.57 125.56 82.89 125.7 85.63 125.84 88.36 128.17 90.47 130.9 90.33 133.63 90.19 135.74 87.86 135.6 85.13 135.46 82.4 133.14 80.3 130.4 80.43Z" fill="#FFAE2C" clip-path="url(#SVGID_2_)"/></g><path d="M90.11 88.85 40.73 88.85 26.96 131.48 26.96 137.27 26.96 157.73 26.96 264.9C26.96 268.1 30.39 270.69 34.61 270.69L145.6 270.69C149.83 270.69 153.25 268.1 153.25 264.9L153.25 157.73 153.25 137.27 153.25 131.48 139.5 88.85 90.11 88.85Z" fill="#D4D2C5"/><g><defs><path d="M9.79 27.52 14.61 13.94 61.2 30.46 61.08 30.8 61.28 30.74 96.43 156.78 82.54 160.65 49.33 41.54Z" id="SVGID_3_"/></defs><clipPath id="SVGID_4_"><use width="100%" height="100%" xlink:href="#SVGID_3_"></use></clipPath><path d="M61.08 30.8 61.2 30.46 14.61 13.94 9.79 27.52 49.33 41.54 82.54 160.65 96.43 156.78 61.28 30.74Z" fill="#CC0000" clip-path="url(#SVGID_4_)"/><path d="M54.73 134.89C54.73 134.89 54.04 138.68 53.73 141.73 82.76 155.72 110.66 147.52 110.66 147.52 110.66 147.52 110.66 147.52 111.06 140.62 81.94 147.11 54.73 134.89 54.73 134.89Z" fill="#FFFFFF" clip-path="url(#SVGID_4_)"/><path d="M54.1 114.99C54.1 114.99 53.41 118.78 53.1 121.83 82.13 135.82 110.03 127.62 110.03 127.62 110.03 127.62 110.03 127.62 110.43 120.72 81.31 127.21 54.1 114.99 54.1 114.99Z" fill="#FFFFFF" clip-path="url(#SVGID_4_)"/><path d="M43.7 77.7C43.7 77.7 43.01 81.49 42.7 84.54 71.73 98.53 99.63 90.33 99.63 90.33 99.63 90.33 99.63 90.33 100.03 83.43 70.92 89.93 43.7 77.7 43.7 77.7Z" fill="#FFFFFF" clip-path="url(#SVGID_4_)"/><path d="M34.74 38.53C34.74 38.53 33.64 42.22 32.99 45.21 60.3 62.32 88.94 57.26 88.94 57.26 88.94 57.26 88.94 57.26 90.1 50.45 60.44 53.68 34.74 38.53 34.74 38.53Z" fill="#FFFFFF" clip-path="url(#SVGID_4_)"/><path d="M39.07 56.5C39.07 56.5 37.97 60.19 37.32 63.18 64.63 80.29 93.26 75.23 93.26 75.23 93.26 75.23 93.26 75.23 94.42 68.42 64.76 71.66 39.07 56.5 39.07 56.5Z" fill="#FFFFFF" clip-path="url(#SVGID_4_)"/><path d="M43.07 76.14C43.07 76.14 41.97 79.83 41.32 82.82 68.63 99.93 97.26 94.87 97.26 94.87 97.26 94.87 97.26 94.87 98.42 88.06 68.76 91.3 43.07 76.14 43.07 76.14Z" fill="#FFFFFF" clip-path="url(#SVGID_4_)"/><path d="M46.14 92.32C46.14 92.32 45.04 96.01 44.39 99 71.7 116.11 100.33 111.05 100.33 111.05 100.33 111.05 100.33 111.05 101.49 104.24 71.83 107.48 46.14 92.32 46.14 92.32Z" fill="#FFFFFF" clip-path="url(#SVGID_4_)"/><path d="M24.7 38.08C24.7 38.08 25.65 41.81 26.64 44.71 58.86 45.35 80.82 26.28 80.82 26.28 80.82 26.28 80.82 26.28 78.31 19.84 54.54 37.87 24.7 38.08 24.7 38.08Z" fill="#FFFFFF" clip-path="url(#SVGID_4_)"/><path d="M9 26.67C9 26.67 9.62 30.47 10.35 33.45 42.39 36.91 65.94 19.84 65.94 19.84 65.94 19.84 65.94 19.84 64.01 13.21 38.74 29.08 9 26.67 9 26.67Z" fill="#FFFFFF" clip-path="url(#SVGID_4_)"/><path d="M0 13.47C0 13.47 0.62 17.27 1.35 20.25 33.39 23.7 56.93 6.63 56.93 6.63 56.93 6.63 56.93 6.63 55 0 29.74 15.87 0 13.47 0 13.47Z" fill="#FFFFFF" clip-path="url(#SVGID_4_)"/><path d="M85.54 155.65 52.33 36.54 12.79 22.52 15.7 14.32 14.61 13.94 9.79 27.52 49.33 41.54 82.54 160.65 96.43 156.78 95.35 152.92Z" fill="#050505" clip-path="url(#SVGID_4_)" opacity="0.1"/></g><path d="M14.35 13.96C12.4 13.33 9.86 15.85 8.66 19.57 7.46 23.3 8.07 26.82 10.02 27.45 11.97 28.08 14.51 25.56 15.71 21.84 16.9 18.11 16.29 14.58 14.35 13.96Z" fill="#990000"/><path d="M88.51 156.24C84.64 157.47 82.03 160.11 82.67 162.15 83.32 164.19 86.98 164.85 90.84 163.62 94.71 162.39 97.32 159.75 96.68 157.71 96.04 155.68 92.38 155.02 88.51 156.24Z" fill="#B20000"/><path d="M90.11 109.77 49.78 109.77 38.54 144.58 38.54 149.31 38.54 166.02 38.54 253.55C38.54 256.16 41.34 258.28 44.79 258.28L135.43 258.28C138.88 258.28 141.68 256.16 141.68 253.55L141.68 166.02 141.68 149.31 141.68 144.58 130.44 109.77 90.11 109.77Z" fill="#FFAE2C"/><path d="M52.96 137.27 52.96 131.48 66.73 88.85 40.73 88.85 26.96 131.48 26.96 137.27 26.96 157.73 26.96 264.9C26.96 268.1 30.39 270.69 34.61 270.69L60.61 270.69C56.38 270.69 52.96 268.1 52.96 264.9L52.96 157.73 52.96 137.27Z" fill="#050505" opacity="0.1"/><path d="M75.56 216.19C71.69 216.19 68.55 219.33 68.55 223.21 68.55 227.08 71.69 230.22 75.56 230.22 79.43 230.22 82.58 227.08 82.58 223.21 82.58 219.33 79.44 216.19 75.56 216.19Z" fill="#FF962E"/><path d="M96.78 202.16C92.91 202.16 89.77 205.3 89.77 209.18 89.77 213.05 92.91 216.19 96.78 216.19 100.65 216.19 103.8 213.05 103.8 209.18 103.8 205.3 100.66 202.16 96.78 202.16Z" fill="#FF962E"/><path d="M110.81 223.2C106.94 223.2 103.8 226.34 103.8 230.22 103.8 234.09 106.94 237.23 110.81 237.23 114.68 237.23 117.83 234.09 117.83 230.22 117.83 226.34 114.69 223.2 110.81 223.2Z" fill="#FF962E"/><path d="M128.71 239.19C124.84 239.19 121.7 242.33 121.7 246.21 121.7 250.08 124.84 253.22 128.71 253.22 132.58 253.22 135.73 250.08 135.73 246.21 135.73 242.33 132.59 239.19 128.71 239.19Z" fill="#FF962E"/><path d="M128.71 209.17C124.84 209.17 121.7 212.31 121.7 216.19 121.7 220.06 124.84 223.2 128.71 223.2 132.58 223.2 135.73 220.06 135.73 216.19 135.73 212.32 132.59 209.17 128.71 209.17Z" fill="#FF962E"/><path d="M132.01 179.77C128.14 179.77 125 182.91 125 186.79 125 190.66 128.14 193.8 132.01 193.8 135.88 193.8 139.03 190.66 139.03 186.79 139.02 182.91 135.88 179.77 132.01 179.77Z" fill="#FF962E"/><path d="M108.51 179.77C104.64 179.77 101.5 182.91 101.5 186.79 101.5 190.66 104.64 193.8 108.51 193.8 112.38 193.8 115.53 190.66 115.53 186.79 115.52 182.91 112.38 179.77 108.51 179.77Z" fill="#FF962E"/><path d="M64.01 239.19C60.14 239.19 57 242.33 57 246.21 57 250.08 60.14 253.22 64.01 253.22 67.88 253.22 71.03 250.08 71.03 246.21 71.02 242.33 67.88 239.19 64.01 239.19Z" fill="#FF962E"/><path d="M90.11 237.23C86.24 237.23 83.1 240.37 83.1 244.25 83.1 248.12 86.24 251.26 90.11 251.26 93.98 251.26 97.13 248.12 97.13 244.25 97.13 240.37 93.99 237.23 90.11 237.23Z" fill="#FF962E"/><path d="M44.62 90.98 135.61 90.98C139.01 90.98 141.77 87.76 141.77 83.79L38.46 83.79C38.46 87.76 41.22 90.98 44.62 90.98Z" fill="#D4D2C5"/><path d="M65.46 83.79 38.46 83.79C38.46 87.76 41.22 90.98 44.62 90.98L71.62 90.98C68.22 90.98 65.46 87.76 65.46 83.79Z" fill="#050505" opacity="0.1"/><path d="M135.61 77.33 44.62 77.33C41.22 77.33 38.46 80.55 38.46 84.52L38.46 84.52 141.77 84.52 141.77 84.52C141.77 80.55 139.01 77.33 135.61 77.33Z" fill="#D4D2C5"/><path d="M38.46 84.52 38.46 84.52 66.73 84.52 66.73 84.52C66.73 80.55 69.49 77.33 72.89 77.33L44.62 77.33C41.22 77.33 38.46 80.55 38.46 84.52Z" fill="#050505" opacity="0.1"/><path d="M140.14 88.85 40.09 88.85C39.19 88.85 38.46 89.77 38.46 90.91 38.46 92.05 39.19 92.97 40.09 92.97L140.14 92.97C141.04 92.97 141.77 92.05 141.77 90.91 141.77 89.78 141.04 88.85 140.14 88.85Z" fill="#C6C4B9"/><path d="M40.09 88.85C39.19 88.85 38.46 89.77 38.46 90.91 38.46 92.05 39.19 92.97 40.09 92.97L67.97 92.97C67.26 92.75 66.73 91.94 66.73 90.97 66.73 89.83 67.46 88.91 68.36 88.91L140.53 88.91C140.4 88.87 140.28 88.84 140.14 88.84L40.09 88.84Z" fill="#050505" opacity="0.1"/><path d="M141.57 81.72 38.66 81.72C37.74 81.72 36.99 82.64 36.99 83.78 36.99 84.92 37.74 85.84 38.66 85.84L141.57 85.84C142.49 85.84 143.24 84.92 143.24 83.78 143.24 82.65 142.49 81.72 141.57 81.72Z" fill="#C6C4B9"/><path d="M68.4 81.72 38.66 81.72C37.74 81.72 36.99 82.64 36.99 83.78 36.99 84.92 37.74 85.84 38.66 85.84L68.4 85.84C67.48 85.84 66.73 84.92 66.73 83.78 66.73 82.65 67.48 81.72 68.4 81.72Z" fill="#050505" opacity="0.1"/></g></svg>