<svg width="678.93" height="244.56" viewBox="0 0 678.93 244.56" xmlns="http://www.w3.org/2000/svg" xmlns:xlink="http://www.w3.org/1999/xlink" overflow="hidden"><defs></defs><g><path d="M655.72 147.73C648.52 144.43 640.93 141.94 633.19 140.26 629.76 139.52 625.1 140.36 621.43 139.6 631.21 136.3 645.16 137.65 650.8 128.98 651 128.67 651.53 127.86 651.12 127.48 650.18 126.62 649.18 125.96 648.13 125.43 653.74 124.52 659.25 123.34 664.34 121.47 670.82 119.09 674.69 112.32 668.22 107.63 663.43 104.16 656.82 102.79 651.21 101.35 641.95 98.97 632.67 96.47 623.32 94.47 615.16 92.72 606.7 91.81 598.44 90.64 595.76 90.26 592.1 90.4 588.44 90.38 594.81 88.25 601.03 85.67 607.21 83.05 612.86 80.65 618.95 77.63 622.36 72.35 631.19 58.7 589.13 49.31 582.7 48.04 554.22 42.42 524.56 41.19 495.61 40.85 488.9 40.77 482.19 40.88 475.48 41.13 480.19 38.54 487.8 34.27 488.81 28.47 490.9 16.44 469.53 15.1 461.71 13.35 405.76 0.81 347.77-2.17 290.64 1.41 266.57 2.92 242.03 3.49 218.43 8.82 212.53 10.15 201.1 13.13 199.54 20.37 199.05 22.67 199.98 24.82 201.83 26.81 193.64 27.39 185.47 28.49 177.33 29.48 153.81 32.33 130.74 36.94 109.07 46.79 99.22 51.27 82.52 61.74 92.75 73.72 98.06 79.94 110.06 82.79 117.38 85.2 122.37 86.84 127.31 88.54 132.48 89.4 135.25 89.86 138.6 90.31 141.36 91.6 133.03 93.34 124.75 94.58 117.4 99.76 113.12 102.77 113.39 104.85 115.37 106.63 109.21 106.96 102 105.84 96.86 106.33 86.07 107.35 75.6 109.53 65.19 112.47 47.26 117.54 29.72 125.23 14.06 135.31 10.92 137.34-6.63 148.44 2.74 153.3 7.77 155.91 13.39 155.5 18.89 155.93 26.63 156.54 37.55 155.31 46.02 157.4 39.77 159.25 33.93 161.91 28.09 165.71 25.31 167.52 18.06 171.94 20.38 176.21 21.34 177.98 26.87 177.89 28.53 178.12 32.07 178.61 43.42 176.53 33.58 180.21 29.18 181.85 23.57 183.75 22 188.6 21.91 188.93 21.95 189.23 22.14 189.51 27.67 193.44 39.73 190.17 46.42 190.59 52.78 190.99 59 192.36 65.37 192.58 69.78 192.73 76.01 193.03 80.85 194.66 69.73 199.79 55.45 204.9 51.24 216.56 48.85 223.19 99.62 227.38 103.41 227.87 128.12 231.04 154.81 228.4 179.42 225.31 192.18 223.71 204.88 221.68 217.63 220.02 220.92 219.59 224.51 219.45 228.08 219.15 224.82 221.13 221.85 223.49 219.62 226.89 219.11 227.66 218.47 228.81 219.51 229.41 227.48 233.99 240.53 225.71 250.25 223.51 243.28 228.72 231.26 235.68 244.77 239.61 267.24 246.15 293.23 244.53 316.34 243.94 341.83 243.29 367.28 242.56 392.65 239.87 400.79 239.01 425.07 239.7 426.59 227.92 427.07 227.9 427.54 227.87 428.02 227.85 439.71 227.4 452.33 228.54 464.45 229.83 457.77 231.9 451.35 234.77 448.06 239.69 447.66 240.3 446.62 242.12 447.94 242.48 459.84 245.75 474.21 243.38 486.45 243.27 503.17 243.12 519.92 242.09 536.57 240.55 562.28 238.17 586.84 232.19 611.35 224.35 622.32 220.84 642.7 215.36 647.07 202.89 649.66 195.49 642.31 191.76 636.28 190.02 629.59 188.09 622.84 186.06 616.14 184.06 611.72 182.74 606.55 182.65 602.01 181.33 605.67 180.84 610.32 181.36 612.97 181.01 618.12 180.33 622.9 180.07 627.69 177.96 629.1 177.34 631.94 175.17 631.04 173.33 630.42 172.06 629.33 171.16 627.97 170.51 638.94 168.6 649.98 167.44 661.17 168.49 667.36 169.07 675.06 172.16 678.56 165.01 682.13 157.71 659.49 149.46 655.72 147.73Z" fill="#A16526"/><path d="M601.2 145.01C609.91 141.86 619.72 140.09 627.44 134.71 637.24 127.88 624.95 121.88 618.43 119.98 608.95 117.22 599.06 116.07 589.27 115.04 583.05 114.39 576.32 114.33 570.27 112.6 569.31 112.33 569.22 110.79 570.27 110.57 579.46 108.61 590.52 109.38 598.23 103.31 587.19 97.14 572.89 101.57 561.13 97.14 560.13 96.76 560.13 95.48 561.13 95.11 571.01 91.43 581.01 87.93 590.32 82.92 595.53 80.12 613.83 69.78 606.05 61.5 600.29 55.36 587.27 59.22 580.45 61.15 572.74 63.33 564.51 65.95 557.73 70.33 556.78 70.94 555.84 69.78 556.29 68.89 560.53 60.43 544.34 57.64 539.12 57.06 534.69 56.57 521.18 54.75 518.75 60.12 518.5 60.68 517.79 60.72 517.31 60.5 509.87 57.09 499.16 58.3 491.31 59.15 483.65 59.98 471.94 60.98 466.58 67.36 466.24 67.77 465.43 67.78 465.09 67.36 463.07 64.82 462.75 62.71 462.38 59.55 461.85 54.99 458.27 52.23 454.51 50.27 448.54 47.15 441.91 45.52 435.29 44.46 420.64 42.12 405.66 40.51 390.89 39.16 357.55 36.1 322.8 35.58 290.46 45.42 291.68 47.16 292.75 49 294.39 50.41 295.12 51.04 294.51 52.19 293.64 52.21 276.4 52.56 260.45 61.69 243.04 59.94 241.89 59.82 241.57 58.24 242.76 57.87 244.86 57.22 254.81 54.34 249.88 51.14 246.88 49.19 243.34 48.11 239.9 47.21 232.34 45.22 224.62 44.19 216.83 43.56 204.04 42.53 189.02 41.89 175.25 44.6 173.14 45.22 171.05 45.89 168.98 46.63 160.53 49.68 146.03 55.4 144.61 65.89 142.92 78.34 160.15 85.09 169.52 88.1 170.46 88.4 170.59 89.89 169.52 90.13 164.19 91.32 143.16 95.46 149.06 104.04 149.43 104.58 149.07 105.46 148.43 105.59 132.37 108.75 115.95 110.48 100.17 114.91 91.85 117.24 83.28 120.02 75.8 124.43 73.55 125.76 66.55 129.38 67.64 133 69.41 138.89 82.2 140.12 87.09 140.93 94.52 142.16 102.01 142.84 109.49 143.58 110.6 143.69 111.02 145.39 109.77 145.65 106.88 146.26 103.98 147.04 101.22 148.12 99.3 148.87 96.57 149.78 95.14 151.39 93.04 153.74 97.17 154.88 98.27 155.21 103.5 156.78 110.33 156.78 114.93 159.9 115.71 160.43 115.55 161.51 114.68 161.83 105.68 165.07 95.75 165.07 86.37 166.47 77.14 167.85 66.61 169.9 60.66 177.7 68.37 179.38 76.4 177.92 84.11 176.91 92.27 175.84 99.52 175.69 107.59 177.55 124.81 181.51 141.2 188.94 155.61 199.15 162.13 203.77 168.53 208.85 175.73 212.39 182.77 215.85 190.11 217.59 197.91 218.14 204.85 218.63 212.43 218.87 219.13 216.71 220.81 216.17 222.55 215.58 224.01 214.56 225.38 213.6 221.62 210.78 220.95 210.22 217.13 207.05 213.02 204.85 208.29 203.31 207.39 203.02 207.18 201.45 208.29 201.28 231.45 197.64 255.03 198.15 278.36 199.52 300.69 200.83 322.78 202.73 344.83 206.64 378 212.53 411.92 220.91 445.82 221.58 470.02 218.87 493.78 211.71 514.87 200.19 503.61 194.61 490.93 198.61 478.88 196.29 478.01 196.12 477.82 194.75 478.63 194.36 507.11 180.89 538.36 174.65 569.21 169.31 590.89 165.56 612.86 161.29 634.92 159.46 624.88 153.17 611.22 152.96 600.92 146.98 600.11 146.45 600.37 145.31 601.2 145.01Z" fill="#A16526" opacity="0.5"/><g><g><path d="M567.17 122.21C559.97 121.24 536.53 118.62 539.57 106.29 541.16 99.86 547.29 95.07 552.23 91.2 557.52 87.05 563.28 83.28 569.23 80.15 577.85 75.62 586.79 72.07 595.83 68.76 589.87 69.91 584.04 71.76 578.08 73.31 576 73.85 573.89 74.33 571.78 74.8 567.63 76.75 563.59 78.76 559.81 80.76 553.19 84.26 546.99 87.99 541.8 92.9 538.59 91.91 535.38 90.93 532.15 89.92 518.34 85.58 504.58 83.01 490.5 81.43 468.95 82.11 447.39 84.29 425.8 83.84 408.36 83.48 392.33 80.66 375.59 75.86 367.72 73.6 360.22 72.11 352.09 71.16 349.89 70.9 347.69 70.61 345.54 70.19 320.48 67.56 295.35 66.1 270.34 70.37 252.03 73.5 234.43 78.89 215.73 79.13 213.39 79.16 200.69 79.35 190.63 77.7 188.04 75.17 185.25 72.92 182.87 71.07 187.45 77.46 191.89 84.68 191.54 92 191.21 98.78 186.9 102.3 181.31 105.47 173.72 109.78 165.52 112.91 156.99 114.79 154.67 115.3 152.33 115.74 149.99 116.13 147.3 117.03 144.66 117.81 142.15 118.46 134.8 120.37 127.35 121.71 120.07 123.57 114.24 121.94 108.13 121.15 102.32 121.05 119.18 129.05 139.91 136.52 139.26 156.69 141.24 161.16 142.37 165.84 142.04 170.25 141.84 170.16 141.64 170.06 141.44 169.98 128.29 164.42 115 164.08 100.93 164.65 92.95 164.97 84.88 165.34 76.94 166.2 73.77 166.54 70.77 167.12 67.79 167.57 72.79 168.04 77.8 168.37 82.79 168.84 89.09 169.43 95.28 170.49 101.63 170.68 110.53 170.95 119.31 171.1 128.02 173.15 146.54 177.52 162.64 186.56 179.94 194.08 188.78 197.92 197.77 201.43 207.23 203.39 207.61 203.47 207.99 203.54 208.37 203.62 199.93 199.55 191.4 195.66 182.91 191.7 187.95 191.28 193.07 190.34 197.17 189.99 210.75 188.81 223.83 188.41 237.48 188.64 265.07 189.11 293.31 189.9 320.71 193.19 347.47 196.4 372.9 205.69 399.66 208.68 407.95 209.61 416.34 210.05 424.77 210.15 433.75 209.2 442.66 207.94 451.39 206.52 459.47 205.21 467.59 203.73 475.77 203.12 459.32 203.49 442.96 203.99 426.59 203.03 433.44 199.3 440.43 195.88 447.54 192.67 465.62 184.5 483.09 176.67 502.11 170.82 518.91 165.65 536.25 161.46 553.73 159.33 571.93 155.58 590.62 153.45 608.98 150.38 598.17 149.56 587.2 149.29 576.21 149.59 584.94 143.48 594.51 138.96 604.53 135.35 607.16 136.67 609.12 137.47 612.5 137.77 612.67 137.78 612.88 137.73 613.11 137.63 606.12 133.54 598.97 129.69 591.36 127.05 583.38 124.28 575.45 123.33 567.17 122.21ZM573.38 149.66C552.38 150.42 531.38 153.26 511.49 158.34 493.3 162.99 475.95 170.22 459.46 179.11 456.16 180.89 425.74 197.32 420.34 202.57 415.59 202.17 410.84 201.64 406.08 200.92 381.06 197.14 358.16 185.77 333.01 182.57 305.07 179.02 276.69 178.86 248.55 179.02 235.45 179.09 222.4 179.53 209.48 181.77 202.37 183 195.33 184.56 188.25 185.91 184.63 186.6 180.57 188.01 176.67 188.7 166.16 183.5 156.45 176.99 145.87 171.95 153.81 162.62 149.2 146.56 142.83 137.85 140.58 134.77 137.71 132.2 134.47 130.03 137.61 129.37 140.68 128.29 143.68 126.96 150.2 124.82 156.45 122.29 162.08 119.3 165.56 117.45 169.09 115.07 172.4 112.3 181.83 109.02 194.19 105.81 198.05 96.82 199.37 93.74 199.1 90.66 197.93 87.69 214.42 88.78 233.98 86.54 238.69 85.29 259.75 79.72 280.76 73.79 302.68 73.17 321.45 72.65 340.18 74.65 358.93 75.56 369.23 80.29 380.73 81.92 391.78 85.09 412.78 91.11 435.11 90.45 456.72 90.2 481.14 89.92 504.78 86.53 528.64 93.65 531.81 94.6 535.01 95.66 538.22 96.76 537.27 97.89 536.37 99.1 535.52 100.36 530.32 104.34 526.11 109.46 527.92 115.39 530.83 124.93 549.41 127.6 557.01 128.46 566.49 129.53 576 129.66 585.53 130.17 589.69 130.39 594.24 131.15 598.37 132.56 589.24 137.09 580.86 142.67 573.38 149.66Z" fill="#714021"/><path d="M567.17 122.21C559.97 121.24 536.53 118.62 539.57 106.29 541.16 99.86 547.29 95.07 552.23 91.2 557.52 87.05 563.28 83.28 569.23 80.15 577.85 75.62 586.79 72.07 595.83 68.76 589.87 69.91 584.04 71.76 578.08 73.31 576 73.85 573.89 74.33 571.78 74.8 567.63 76.75 563.59 78.76 559.81 80.76 553.19 84.26 546.99 87.99 541.8 92.9 538.59 91.91 535.38 90.93 532.15 89.92 518.34 85.58 504.58 83.01 490.5 81.43 468.95 82.11 447.39 84.29 425.8 83.84 408.36 83.48 392.33 80.66 375.59 75.86 367.72 73.6 360.22 72.11 352.09 71.16 349.89 70.9 347.69 70.61 345.54 70.19 320.48 67.56 295.35 66.1 270.34 70.37 252.03 73.5 234.43 78.89 215.73 79.13 213.39 79.16 200.69 79.35 190.63 77.7 188.04 75.17 185.25 72.92 182.87 71.07 187.45 77.46 191.89 84.68 191.54 92 191.21 98.78 186.9 102.3 181.31 105.47 173.72 109.78 165.52 112.91 156.99 114.79 154.67 115.3 152.33 115.74 149.99 116.13 147.3 117.03 144.66 117.81 142.15 118.46 134.8 120.37 127.35 121.71 120.07 123.57 114.24 121.94 108.13 121.15 102.32 121.05 119.18 129.05 139.91 136.52 139.26 156.69 141.24 161.16 142.37 165.84 142.04 170.25 141.84 170.16 141.64 170.06 141.44 169.98 128.29 164.42 115 164.08 100.93 164.65 92.95 164.97 84.88 165.34 76.94 166.2 73.77 166.54 70.77 167.12 67.79 167.57 72.79 168.04 77.8 168.37 82.79 168.84 89.09 169.43 95.28 170.49 101.63 170.68 110.53 170.95 119.31 171.1 128.02 173.15 146.54 177.52 162.64 186.56 179.94 194.08 188.78 197.92 197.77 201.43 207.23 203.39 207.61 203.47 207.99 203.54 208.37 203.62 199.93 199.55 191.4 195.66 182.91 191.7 187.95 191.28 193.07 190.34 197.17 189.99 210.75 188.81 223.83 188.41 237.48 188.64 265.07 189.11 293.31 189.9 320.71 193.19 347.47 196.4 372.9 205.69 399.66 208.68 407.95 209.61 416.34 210.05 424.77 210.15 433.75 209.2 442.66 207.94 451.39 206.52 459.47 205.21 467.59 203.73 475.77 203.12 459.32 203.49 442.96 203.99 426.59 203.03 433.44 199.3 440.43 195.88 447.54 192.67 465.62 184.5 483.09 176.67 502.11 170.82 518.91 165.65 536.25 161.46 553.73 159.33 571.93 155.58 590.62 153.45 608.98 150.38 598.17 149.56 587.2 149.29 576.21 149.59 584.94 143.48 594.51 138.96 604.53 135.35 607.16 136.67 609.12 137.47 612.5 137.77 612.67 137.78 612.88 137.73 613.11 137.63 606.12 133.54 598.97 129.69 591.36 127.05 583.38 124.28 575.45 123.33 567.17 122.21Z" fill="#431F0D"/><path d="M573.38 149.66C552.38 150.42 531.38 153.26 511.49 158.34 493.3 162.99 475.95 170.22 459.46 179.11 456.16 180.89 425.74 197.32 420.34 202.57 415.59 202.17 410.84 201.64 406.08 200.92 381.06 197.14 358.16 185.77 333.01 182.57 305.07 179.02 276.69 178.86 248.55 179.02 235.45 179.09 222.4 179.53 209.48 181.77 202.37 183 195.33 184.56 188.25 185.91 184.63 186.6 180.57 188.01 176.67 188.7 166.16 183.5 156.45 176.99 145.87 171.95 153.81 162.62 149.2 146.56 142.83 137.85 140.58 134.77 137.71 132.2 134.47 130.03 137.61 129.37 140.68 128.29 143.68 126.96 150.2 124.82 156.45 122.29 162.08 119.3 165.56 117.45 169.09 115.07 172.4 112.3 181.83 109.02 194.19 105.81 198.05 96.82 199.37 93.74 199.1 90.66 197.93 87.69 214.42 88.78 233.98 86.54 238.69 85.29 259.75 79.72 280.76 73.79 302.68 73.17 321.45 72.65 340.18 74.65 358.93 75.56 369.23 80.29 380.73 81.92 391.78 85.09 412.78 91.11 435.11 90.45 456.72 90.2 481.14 89.92 504.78 86.53 528.64 93.65 531.81 94.6 535.01 95.66 538.22 96.76 537.27 97.89 536.37 99.1 535.52 100.36 530.32 104.34 526.11 109.46 527.92 115.39 530.83 124.93 549.41 127.6 557.01 128.46 566.49 129.53 576 129.66 585.53 130.17 589.69 130.39 594.24 131.15 598.37 132.56 589.24 137.09 580.86 142.67 573.38 149.66Z" fill="#5A3418"/><path d="M256.23 130.72C255.33 114.16 255.08 97.59 255.02 81.01 249.56 82.4 244.12 83.86 238.67 85.3 236.36 85.91 230.49 86.76 223.17 87.34 226.29 104.92 226.94 122.89 229.49 140.6 231.36 153.6 234.42 166.39 237.19 179.24 240.97 179.12 244.76 179.06 248.55 179.04 252.84 179.02 257.15 179.01 261.45 179.01 259.53 162.93 257.11 146.88 256.23 130.72Z" fill="#5A3418" opacity="0.6"/><path d="M310.27 177.54C311.17 164.12 310.95 151.04 309.82 137.64 308.02 116.23 308.49 94.66 309.15 73.15 307.66 73.15 306.18 73.14 304.68 73.17 304.38 79.08 303.98 84.99 303.43 90.88 302.3 103.11 300.31 115.25 299.34 127.48 297.97 144.87 298.03 162.29 298.05 179.71 302.06 179.89 306.07 180.13 310.07 180.41 310.15 179.45 310.21 178.49 310.27 177.54Z" fill="#5A3418" opacity="0.6"/><path d="M386.23 184.21C389.67 168.52 392.56 152.8 397.04 137.35 401.58 121.66 406.48 106.1 410.82 90.36 410.95 89.89 411.07 89.41 411.2 88.93 404.63 88.14 398.14 86.93 391.76 85.1 386.23 83.52 380.59 82.31 375.05 80.92 374.64 83.28 374.25 85.63 373.93 87.96 371.52 105.55 370.05 123.21 367.92 140.83 365.97 156.97 363.82 173.16 362.5 189.38 369.4 191.45 376.26 193.67 383.17 195.67 384.31 191.87 385.38 188.06 386.23 184.21Z" fill="#5A3418" opacity="0.6"/><path d="M495.02 127.81C499.33 115.17 503.55 102.5 507.61 89.78 504.84 89.54 502.07 89.37 499.29 89.28 494.74 105.43 488.13 121.08 485.1 137.67 483.19 148.11 481.79 158.78 479.75 169.29 481.13 168.69 482.53 168.15 483.93 167.57 487.35 154.24 490.57 140.85 495.02 127.81Z" fill="#5A3418" opacity="0.6"/><g><path d="M216.82 154.32C213.74 140.47 210.4 126.71 206.66 113.03 204.36 104.58 202.37 95.93 199.15 87.78 198.74 87.76 198.32 87.74 197.91 87.71 199.09 90.68 199.36 93.76 198.03 96.84 194.17 105.83 181.81 109.04 172.38 112.32 169.08 115.09 165.54 117.47 162.06 119.32 156.42 122.31 150.17 124.84 143.66 126.98 140.66 128.31 137.6 129.39 134.45 130.05 137.69 132.22 140.56 134.79 142.81 137.87 149.17 146.57 153.78 162.64 145.85 171.97 156.44 177.01 166.14 183.52 176.65 188.72 180.55 188.03 184.62 186.62 188.23 185.93 195.32 184.59 202.36 183.03 209.46 181.79 213.78 181.04 218.11 180.51 222.46 180.11 220.59 171.51 218.73 162.91 216.82 154.32Z" fill="#41240D"/><path d="M184.75 156.12C179.44 142.48 173.53 129.04 168.52 115.28 166.39 116.8 164.22 118.17 162.06 119.31 156.42 122.3 150.17 124.83 143.66 126.97 140.66 128.3 137.6 129.38 134.45 130.04 137.69 132.21 140.56 134.78 142.81 137.86 149.17 146.56 153.78 162.63 145.85 171.96 156.44 177 166.14 183.51 176.65 188.71 180.55 188.02 184.62 186.61 188.23 185.92 190.65 185.46 193.07 184.97 195.49 184.48 192.08 174.97 188.42 165.54 184.75 156.12Z" fill="#301A04"/><path d="M276.67 153.1C275.54 141.19 275.12 128.79 271.02 117.47 271.49 137.99 270.82 158.63 272.71 179.05 275.76 179.08 278.8 179.12 281.85 179.18 279.83 170.56 277.51 161.98 276.67 153.1Z" fill="#41240D"/><path d="M284.3 119.99C287.94 105.26 286.96 89.75 286.66 74.53 282.91 75.03 279.18 75.68 275.46 76.39 281.38 89.87 280.26 105.8 284.3 119.99Z" fill="#41240D"/><path d="M473.67 89.68C469.36 89.86 465.04 90.03 460.69 90.14 457.69 102.12 456.81 114.71 456.57 127.08 460.49 113.81 466.48 101.44 473.67 89.68Z" fill="#41240D"/><path d="M429.11 173.71C427.71 154.79 431.57 135.42 433.37 116.43 426.71 133.44 426.03 151.93 420.96 169.47 418.03 179.61 412.48 188.8 409.8 199.01 409.6 199.79 409.46 200.57 409.3 201.35 412.98 201.84 416.66 202.26 420.34 202.57 422.11 200.85 426.58 197.92 431.9 194.7 430.91 187.47 429.6 180.31 429.11 173.71Z" fill="#41240D"/><path d="M585.5 130.18C575.97 129.67 566.46 129.54 556.98 128.47 549.38 127.61 530.8 124.94 527.89 115.4 527.22 113.22 527.38 111.14 528.09 109.19 527.69 109.56 527.3 109.93 526.91 110.33 521.29 116.21 519.96 124.04 517.43 131.45 515.42 137.31 512.64 142.67 509.22 147.83 506.41 152.08 503.98 156.53 501.8 161.11 505 160.12 508.22 159.18 511.48 158.34 531.36 153.26 552.36 150.41 573.37 149.66 580.85 142.67 589.24 137.09 598.33 132.57 594.21 131.16 589.66 130.4 585.5 130.18Z" fill="#41240D"/><path d="M585.5 130.18C575.97 129.67 566.46 129.54 556.98 128.47 550.27 127.71 535 125.53 529.52 118.45 530.14 121.63 531.53 124.52 534.95 126.79 541.12 130.88 548.16 133.08 554.96 135.84 555.66 136.12 555.99 136.79 555.64 137.5 553.32 142.14 551.04 146.79 548.93 151.52 557.04 150.58 565.22 149.96 573.39 149.67 580.87 142.68 589.26 137.1 598.35 132.58 594.21 131.16 589.66 130.4 585.5 130.18Z" fill="#301A04"/><path d="M331.55 158.86C334.2 139.23 339.91 120.31 343.38 100.8 344.86 92.49 345.59 83.57 347.12 74.89 341.74 74.54 336.36 74.17 330.98 73.86 333.2 102.15 327.57 130.72 331.55 158.86Z" fill="#41240D"/></g><path d="M585.5 130.18C575.97 129.67 566.46 129.54 556.98 128.47 549.38 127.61 530.8 124.94 527.89 115.4 526.08 109.47 530.3 104.35 535.49 100.37 536.34 99.11 537.24 97.91 538.19 96.77 534.98 95.67 531.79 94.61 528.61 93.66 528.2 93.54 527.79 93.43 527.38 93.32 518.29 109.7 508.75 125.83 500.32 142.57 499.74 143.72 497.87 142.91 498.26 141.7 503.63 124.75 506.01 106.89 511.98 90.23 508.71 89.82 505.43 89.55 502.15 89.39 500.15 94.49 498.1 99.58 496.35 104.73 490.92 120.75 486.6 137.37 479.44 152.73 478.94 153.8 477.36 153.21 477.34 152.16 477.2 146.08 477.55 140.03 478.05 133.99 477.48 136.75 476.85 139.49 476.02 142.16 471.63 156.22 455.41 163.58 445.42 173.27 445.01 173.67 444.22 173.75 443.82 173.27 439.94 168.62 433.94 166.38 430.17 161.77 427.16 158.07 426.08 153.5 425.8 148.8 425.66 146.48 425.68 144.17 425.77 141.86 423.44 147.53 420.66 152.93 416.45 157.21 411.97 161.78 406.11 165.8 400.58 168.99 396.31 171.46 391.24 173.52 386.24 171.99 378.47 169.61 369.83 164.48 368.48 155.8 366.69 144.35 367.6 132.28 369.31 120.66 366.94 126.31 364.64 132.01 361.87 137.48 358.66 143.82 354.97 151.01 348.7 154.83 348.21 155.13 347.42 154.97 347.16 154.43 345.47 150.96 345.04 147.43 345.32 143.87 342.15 151.56 339.09 159.31 336.24 167.13 336.02 167.73 335.49 168.06 334.85 167.92 329.08 166.66 323.64 164.95 317.66 165.7 317.01 165.78 316.57 165.12 316.53 164.57 316.04 158.13 315.23 151.74 314.09 145.4 312.26 153 311.29 160.76 310.32 168.53 310.16 169.82 308.6 170.04 308.1 168.83 303.07 156.46 300.83 143.88 300.11 131.03 299.4 133.97 298.42 136.79 296.57 139.31 293.72 143.2 290.4 146.69 288.83 151.34 288.66 151.84 288.27 152.14 287.74 152.17 261.34 153.58 257.32 125.53 254.61 103.27 251.64 122.56 251.34 142.44 252.76 161.76 252.8 162.26 252.39 162.71 251.93 162.85 248.16 163.98 243.2 167.16 239.21 164.99 235.21 162.82 233.56 158 229.62 155.96 225.04 153.6 219.38 152.76 216 148.56 214.98 147.29 214.05 145.97 213.13 144.64 213.63 151.52 213.45 158.43 212.09 165.45 211.97 166.05 211.26 166.39 210.7 166.24 202.91 164.12 194.31 162.27 187.51 157.72 181.64 153.79 180.45 145.91 177.15 139.77 179.55 150.02 182.34 159.64 178.3 170.28 175.94 176.5 170.76 179.64 165.41 182.68 169.1 184.78 172.8 186.84 176.62 188.73 180.52 188.04 184.59 186.63 188.2 185.94 195.29 184.6 202.33 183.04 209.43 181.8 222.35 179.56 235.41 179.13 248.5 179.05 276.64 178.89 305.02 179.05 332.96 182.6 358.11 185.8 381.01 197.17 406.03 200.95 410.79 201.67 415.54 202.2 420.29 202.6 425.69 197.35 456.11 180.92 459.41 179.14 475.9 170.25 493.25 163.02 511.44 158.37 531.32 153.29 552.32 150.44 573.33 149.69 580.81 142.7 589.2 137.12 598.29 132.6 594.21 131.16 589.66 130.4 585.5 130.18Z" fill="#3B2009" opacity="0.4"/></g><g><g><path d="M563.43 200.4C563.43 200.4 580.4 202.23 584.29 193.22 588.18 184.22 563.04 175.66 553.83 180.53 544.62 185.37 554.24 198.58 563.43 200.4Z" fill="#352518"/><g opacity="0.5"><path d="M563.43 200.4C563.43 200.4 580.4 202.23 584.29 193.22 588.18 184.22 563.04 175.66 553.83 180.53 544.62 185.37 554.24 198.58 563.43 200.4ZM555.1 181.51C557.55 179.72 561.64 180.41 564.42 180.67 572.74 181.42 581.5 185.41 582.34 188.39 583.19 191.37 575.27 196.42 565.47 194.26 562.77 193.68 559.51 191.88 557.42 190.06 556.04 188.84 553.78 185.96 553.94 183.64 553.98 182.84 554.33 182.1 555.1 181.51Z" fill="#7C5740"/></g><path d="M573.87 184.78C573.55 185.44 574.8 186.76 576.66 187.71 578.51 188.66 580.28 188.89 580.6 188.22 580.92 187.56 579.68 186.23 577.82 185.28 575.97 184.33 574.2 184.11 573.87 184.78Z" fill="#FFFFFF" opacity="0.3"/></g></g><g><g><path d="M202.08 79.57C202.08 79.57 225.63 82.11 231.03 69.61 236.43 57.11 201.54 45.24 188.76 51.99 175.98 58.73 189.33 77.05 202.08 79.57Z" fill="#352518"/><g opacity="0.5"><path d="M202.08 79.57C202.08 79.57 225.63 82.11 231.03 69.61 236.43 57.11 201.54 45.24 188.76 51.99 175.98 58.73 189.33 77.05 202.08 79.57ZM190.53 53.37C193.93 50.89 199.61 51.85 203.46 52.21 215.01 53.25 227.16 58.79 228.32 62.92 229.5 67.06 218.51 74.06 204.92 71.07 201.17 70.27 196.65 67.78 193.75 65.24 191.84 63.54 188.7 59.54 188.92 56.33 188.97 55.21 189.46 54.18 190.53 53.37Z" fill="#7C5740"/></g><path d="M216.57 57.9C216.13 58.82 217.86 60.65 220.44 61.97 223.01 63.29 225.47 63.61 225.91 62.68 226.36 61.76 224.64 59.92 222.06 58.6 219.48 57.29 217.03 56.98 216.57 57.9Z" fill="#FFFFFF" opacity="0.3"/></g></g><g><g><path d="M102.45 164.97C102.45 164.97 119.45 166.8 123.35 157.78 127.25 148.76 102.06 140.19 92.83 145.06 83.6 149.93 93.25 163.16 102.45 164.97Z" fill="#352518"/><g opacity="0.5"><path d="M102.45 164.97C102.45 164.97 119.45 166.8 123.35 157.78 127.25 148.76 102.06 140.19 92.83 145.06 83.6 149.93 93.25 163.16 102.45 164.97ZM94.12 146.06C96.57 144.27 100.67 144.96 103.45 145.22 111.79 145.97 120.56 149.97 121.4 152.95 122.26 155.93 114.32 160.99 104.51 158.83 101.8 158.25 98.54 156.45 96.44 154.62 95.06 153.4 92.79 150.51 92.95 148.19 92.99 147.38 93.34 146.64 94.12 146.06Z" fill="#7C5740"/></g><path d="M112.91 149.33C112.59 149.99 113.84 151.31 115.71 152.27 117.56 153.22 119.34 153.45 119.66 152.78 119.98 152.12 118.74 150.79 116.88 149.84 115.02 148.89 113.25 148.66 112.91 149.33Z" fill="#FFFFFF" opacity="0.3"/></g></g><g><g><path d="M533.05 181.33C533.05 181.33 519.7 187.67 504.7 180.11 489.68 172.56 508.2 157.52 520.61 160.38 533.03 163.22 538.44 175.47 533.05 181.33Z" fill="#7C5740"/><g opacity="0.5"><path d="M504.69 180.11C519.7 187.67 533.04 181.33 533.04 181.33 538.43 175.47 533.02 163.22 520.6 160.38 508.19 157.52 489.68 172.56 504.69 180.11ZM513.29 162.01C517.95 161.38 521.9 162.15 525.76 164.4 527.53 165.44 529.69 167.43 530.58 169.12 530.92 169.77 531.14 170.48 531.19 171.25 531.39 173.92 529.77 175.77 526.68 176.08 520.12 176.77 514.87 176.12 509.62 171.5 504.94 167.39 506.92 162.88 513.29 162.01Z" fill="#7C5740"/></g><path d="M505.97 164.44C502.85 166.53 503.31 172.16 504.72 175.03 507.69 181.05 519.57 180.94 524.98 180.12 528.64 179.55 532.37 176.84 534.12 175.06 534.25 177.27 533.66 179.34 532.2 180.93 532.2 180.93 519.56 186.94 505.35 179.78 496.81 175.48 499.73 168.64 505.97 164.44Z" fill="#7C5740" opacity="0.5"/><path d="M513.45 163.01C513.44 163.43 514.42 163.77 515.63 163.77 516.83 163.77 517.82 163.44 517.83 163.02 517.84 162.6 516.85 162.25 515.65 162.25 514.43 162.25 513.45 162.59 513.45 163.01Z" fill="#FFFFFF" opacity="0.3"/></g></g><g><path d="M461.47 208.37C461.47 208.37 475.86 219.92 495.64 212.16 515.42 204.39 496.98 179.53 481.44 181.14 465.91 182.74 456.46 199.01 461.47 208.37Z" fill="#7C5740"/><g opacity="0.5"><path d="M481.44 181.14C465.91 182.74 456.47 199.02 461.47 208.38 461.47 208.38 475.86 219.93 495.64 212.17 515.41 204.39 496.98 179.53 481.44 181.14ZM492.17 198.26C484.74 197.58 478.02 204.44 470.35 202.18 466.74 201.12 465.25 198.2 466.14 194.47 466.39 193.39 466.84 192.42 467.39 191.57 468.87 189.35 471.93 186.96 474.3 185.83 479.47 183.39 484.35 183.05 489.77 184.86 497.18 187.33 499.63 198.95 492.17 198.26Z" fill="#7C5740"/></g><path d="M497.93 189.74C502.77 199.03 492.3 201.91 488.42 201.28 483.48 200.49 479.12 205.62 470.69 205.39 466.19 205.28 463.37 202.17 461.72 199.28 461.03 202.39 461.23 205.45 462.58 207.97 462.58 207.97 476.21 218.92 494.93 211.55 506.17 207.14 504.36 196.89 497.93 189.74Z" fill="#7C5740" opacity="0.5"/><path d="M489.36 186.26C489.26 186.85 488.01 187.15 486.57 186.92 485.12 186.69 484.04 186.02 484.13 185.42 484.23 184.82 485.48 184.52 486.92 184.75 488.36 184.98 489.46 185.65 489.36 186.26Z" fill="#FFFFFF" opacity="0.3"/></g><g><path d="M522.1 205.14C522.1 205.14 527.24 209.81 535.1 209 542.95 208.18 536.7 199.13 530.68 198.4 524.65 197.67 520.48 201.89 522.1 205.14Z" fill="#7C5740"/><g opacity="0.5"><path d="M530.68 198.41C524.65 197.67 520.48 201.89 522.1 205.15 522.1 205.15 527.24 209.82 535.1 209.01 542.95 208.19 536.7 199.14 530.68 198.41ZM534.23 204.48C531.39 203.69 528.57 205.25 525.71 203.95 524.37 203.34 523.88 202.34 524.35 201.26 524.49 200.96 524.69 200.69 524.94 200.48 525.58 199.92 526.84 199.43 527.79 199.27 529.86 198.94 531.74 199.22 533.76 200.2 536.52 201.55 537.06 205.28 534.23 204.48Z" fill="#7C5740"/></g><path d="M536.73 202.33C538.28 205.54 534.16 205.61 532.69 205.11 530.81 204.47 528.96 205.7 525.73 204.96 524.02 204.57 523.03 203.4 522.49 202.38 522.12 203.28 522.1 204.23 522.54 205.11 522.54 205.11 527.4 209.53 534.84 208.75 539.32 208.31 538.96 205.02 536.73 202.33Z" fill="#7C5740" opacity="0.5"/><path d="M533.54 200.59C533.49 200.78 533 200.76 532.46 200.58 531.91 200.39 531.5 200.09 531.57 199.92 531.63 199.75 532.11 199.75 532.66 199.94 533.21 200.13 533.6 200.42 533.54 200.59Z" fill="#FFFFFF" opacity="0.3"/></g><g><path d="M548.64 206.16C548.64 206.16 553.05 209.01 558.84 207.41 564.65 205.83 558.9 199.84 554.3 200.06 549.68 200.26 547.05 203.93 548.64 206.16Z" fill="#7C5740"/><g opacity="0.5"><path d="M554.29 200.06C549.68 200.26 547.04 203.94 548.63 206.16 548.63 206.16 553.04 209.01 558.83 207.41 564.65 205.83 558.89 199.84 554.29 200.06ZM557.67 204.16C555.45 203.91 553.53 205.43 551.21 204.83 550.13 204.54 549.66 203.85 549.9 203 549.94 202.75 550.07 202.53 550.22 202.33 550.64 201.84 551.51 201.31 552.23 201.06 553.73 200.57 555.19 200.55 556.83 201.02 559.04 201.66 559.89 204.38 557.67 204.16Z" fill="#7C5740"/></g><path d="M559.28 202.24C560.82 204.44 557.74 205 556.57 204.8 555.1 204.58 553.84 205.72 551.35 205.58 550.02 205.49 549.13 204.76 548.61 204.04 548.45 204.78 548.53 205.49 548.97 206.09 548.97 206.09 553.13 208.76 558.62 207.27 561.92 206.36 561.28 203.96 559.28 202.24Z" fill="#7C5740" opacity="0.5"/><path d="M556.69 201.33C556.68 201.46 556.31 201.53 555.87 201.46 555.45 201.37 555.12 201.22 555.15 201.08 555.17 200.95 555.53 200.88 555.98 200.95 556.38 201.02 556.72 201.2 556.69 201.33Z" fill="#FFFFFF" opacity="0.3"/></g><g><path d="M551.09 169.51C551.09 169.51 555.46 172.8 561.55 171.61 567.64 170.43 562.1 163.78 557.34 163.64 552.56 163.48 549.6 167.07 551.09 169.51Z" fill="#7C5740"/><g opacity="0.5"><path d="M557.33 163.63C552.56 163.48 549.6 167.07 551.09 169.51 551.09 169.51 555.46 172.8 561.55 171.61 567.64 170.42 562.09 163.77 557.33 163.63ZM560.54 168.13C558.26 167.71 556.18 169.13 553.83 168.32 552.73 167.94 552.29 167.18 552.58 166.31 552.66 166.05 552.8 165.84 552.98 165.66 553.44 165.18 554.39 164.69 555.13 164.51 556.71 164.1 558.22 164.19 559.87 164.81 562.13 165.67 562.81 168.55 560.54 168.13Z" fill="#7C5740"/></g><path d="M562.34 166.27C563.79 168.68 560.57 169.02 559.38 168.73 557.86 168.36 556.51 169.45 553.92 169.11 552.55 168.93 551.7 168.08 551.21 167.32 550.98 168.06 551.03 168.79 551.44 169.45 551.44 169.45 555.56 172.56 561.34 171.43 564.8 170.76 564.28 168.22 562.34 166.27Z" fill="#7C5740" opacity="0.5"/><path d="M559.73 165.14C559.7 165.28 559.31 165.31 558.87 165.21 558.43 165.1 558.09 164.89 558.13 164.76 558.16 164.62 558.55 164.6 558.99 164.7 559.43 164.79 559.77 165 559.73 165.14Z" fill="#FFFFFF" opacity="0.3"/></g><g><path d="M504.99 208.79C504.99 208.79 507.45 210.38 510.72 209.48 513.97 208.6 510.74 205.25 508.16 205.37 505.58 205.49 504.11 207.54 504.99 208.79Z" fill="#7C5740"/><g opacity="0.5"><path d="M508.17 205.36C505.58 205.49 504.11 207.54 505 208.79 505 208.79 507.46 210.38 510.73 209.48 513.97 208.59 510.74 205.25 508.17 205.36ZM510.05 207.66C508.8 207.53 507.73 208.38 506.44 208.03 505.82 207.89 505.56 207.49 505.71 207 505.72 206.87 505.81 206.74 505.88 206.64 506.11 206.36 506.62 206.07 507 205.93 507.85 205.64 508.66 205.62 509.56 205.9 510.82 206.26 511.3 207.79 510.05 207.66Z" fill="#7C5740"/></g><path d="M510.95 206.57C511.83 207.81 510.1 208.12 509.45 208.03 508.61 207.9 507.92 208.54 506.52 208.46 505.78 208.43 505.28 208 504.97 207.61 504.89 208 504.95 208.41 505.18 208.74 505.18 208.74 507.53 210.25 510.6 209.41 512.45 208.9 512.08 207.56 510.95 206.57Z" fill="#7C5740" opacity="0.5"/><path d="M509.52 206.08C509.5 206.16 509.3 206.2 509.05 206.15 508.8 206.12 508.63 206.02 508.63 205.94 508.65 205.86 508.85 205.82 509.1 205.87 509.35 205.9 509.53 206 509.52 206.08Z" fill="#FFFFFF" opacity="0.3"/></g><g><g><g><path d="M143.6 188.91C143.6 188.91 124.09 198.16 102.15 187.11 80.21 176.07 107.26 154.11 125.41 158.27 143.58 162.45 151.47 180.33 143.6 188.91Z" fill="#7C5740"/><g opacity="0.5"><path d="M102.15 187.12C124.09 198.16 143.6 188.92 143.6 188.92 151.47 180.34 143.58 162.45 125.42 158.28 107.26 154.11 80.21 176.08 102.15 187.12ZM114.72 160.67C121.53 159.73 127.29 160.87 132.94 164.17 135.52 165.69 138.68 168.58 139.98 171.06 140.48 172.03 140.81 173.06 140.88 174.19 141.17 178.08 138.8 180.77 134.29 181.24 124.7 182.25 117.03 181.3 109.34 174.53 102.51 168.52 105.41 161.93 114.72 160.67Z" fill="#7C5740"/></g><path d="M104.02 164.21C99.48 167.25 100.13 175.5 102.19 179.69 106.52 188.49 123.89 188.33 131.79 187.12 137.16 186.3 142.59 182.36 145.16 179.73 145.33 182.97 144.47 186.02 142.34 188.33 142.34 188.33 123.87 197.09 103.11 186.62 90.64 180.35 94.91 170.34 104.02 164.21Z" fill="#7C5740" opacity="0.5"/><path d="M114.94 162.13C114.93 162.75 116.37 163.25 118.12 163.25 119.89 163.25 121.33 162.76 121.33 162.14 121.34 161.53 119.92 161.03 118.15 161.01 116.39 161.01 114.95 161.51 114.94 162.13Z" fill="#FFFFFF" opacity="0.3"/></g></g><g><path d="M152.64 196.41C152.64 196.41 155.42 198.2 159.08 197.2 162.72 196.2 159.1 192.42 156.19 192.56 153.3 192.68 151.63 195 152.64 196.41Z" fill="#7C5740"/><g opacity="0.5"><path d="M156.19 192.56C153.3 192.68 151.63 195 152.63 196.41 152.63 196.41 155.41 198.2 159.07 197.2 162.72 196.2 159.1 192.42 156.19 192.56ZM158.33 195.14C156.93 194.98 155.71 195.95 154.26 195.56 153.58 195.38 153.28 194.95 153.42 194.41 153.46 194.26 153.53 194.11 153.64 193.99 153.89 193.68 154.46 193.34 154.89 193.2 155.84 192.87 156.76 192.86 157.79 193.16 159.2 193.57 159.73 195.3 158.33 195.14Z" fill="#7C5740"/></g><path d="M159.34 193.92C160.32 195.32 158.37 195.67 157.64 195.55 156.7 195.39 155.92 196.12 154.35 196.03 153.51 195.98 152.94 195.51 152.62 195.08 152.51 195.53 152.57 195.98 152.83 196.36 152.83 196.36 155.47 198.05 158.93 197.1 161.01 196.53 160.61 195.02 159.34 193.92Z" fill="#7C5740" opacity="0.5"/><path d="M157.72 193.36C157.71 193.45 157.47 193.48 157.2 193.43 156.93 193.39 156.72 193.29 156.73 193.2 156.74 193.11 156.98 193.08 157.24 193.12 157.52 193.16 157.73 193.27 157.72 193.36Z" fill="#FFFFFF" opacity="0.3"/></g><g><path d="M60.57 187.36C60.57 187.36 63.35 189.15 67.02 188.14 70.67 187.14 67.04 183.37 64.14 183.5 61.23 183.63 59.57 185.95 60.57 187.36Z" fill="#7C5740"/><g opacity="0.5"><path d="M64.13 183.49C61.23 183.63 59.57 185.95 60.57 187.35 60.57 187.35 63.35 189.14 67.02 188.13 70.67 187.14 67.04 183.37 64.13 183.49ZM66.26 186.09C64.86 185.93 63.65 186.9 62.19 186.5 61.51 186.33 61.21 185.9 61.36 185.35 61.39 185.2 61.47 185.06 61.57 184.94 61.84 184.62 62.39 184.3 62.82 184.14 63.77 183.81 64.69 183.8 65.72 184.1 67.14 184.51 67.67 186.23 66.26 186.09Z" fill="#7C5740"/></g><path d="M67.28 184.87C68.25 186.26 66.31 186.62 65.58 186.49 64.64 186.35 63.87 187.07 62.28 186.98 61.44 186.93 60.89 186.45 60.56 186.02 60.45 186.47 60.51 186.92 60.78 187.31 60.78 187.31 63.42 189 66.88 188.05 68.95 187.47 68.54 185.96 67.28 184.87Z" fill="#7C5740" opacity="0.5"/><path d="M65.65 184.3C65.64 184.39 65.41 184.42 65.13 184.38 64.86 184.34 64.65 184.23 64.67 184.15 64.68 184.06 64.91 184.03 65.18 184.07 65.46 184.11 65.67 184.21 65.65 184.3Z" fill="#FFFFFF" opacity="0.3"/></g></g><g><g><path d="M489.33 73.09C489.33 73.09 503.72 84.63 523.5 76.86 543.28 69.09 524.84 44.24 509.31 45.84 493.77 47.46 484.34 63.72 489.33 73.09Z" fill="#7C5740"/><g opacity="0.5"><path d="M509.3 45.85C493.77 47.47 484.33 63.73 489.32 73.1 489.32 73.1 503.71 84.64 523.49 76.87 543.28 69.1 524.83 44.24 509.3 45.85ZM520.05 62.97C512.6 62.28 505.89 69.16 498.21 66.9 494.61 65.83 493.11 62.92 494.01 59.18 494.25 58.1 494.69 57.13 495.27 56.29 496.75 54.06 499.81 51.67 502.18 50.54 507.35 48.09 512.24 47.77 517.66 49.58 525.05 52.06 527.49 63.66 520.05 62.97Z" fill="#7C5740"/></g><path d="M525.8 54.45C530.63 63.72 520.16 66.63 516.29 66 511.34 65.2 506.97 70.33 498.55 70.1 494.06 69.98 491.24 66.88 489.58 63.99 488.89 67.09 489.09 70.17 490.44 72.69 490.44 72.69 504.07 83.63 522.8 76.27 534.03 71.85 532.22 61.6 525.8 54.45Z" fill="#7C5740" opacity="0.5"/><path d="M517.21 50.98C517.12 51.58 515.88 51.86 514.43 51.63 512.98 51.4 511.89 50.73 511.99 50.13 512.08 49.53 513.33 49.24 514.78 49.47 516.23 49.7 517.31 50.37 517.21 50.98Z" fill="#FFFFFF" opacity="0.3"/></g><g><path d="M552.41 98.01C552.41 98.01 554.3 99.23 556.81 98.55 559.31 97.86 556.83 95.28 554.84 95.37 552.86 95.46 551.72 97.05 552.41 98.01Z" fill="#7C5740"/><g opacity="0.5"><path d="M554.85 95.36C552.86 95.46 551.72 97.04 552.42 98 552.42 98 554.31 99.22 556.82 98.54 559.31 97.85 556.84 95.28 554.85 95.36ZM556.31 97.13C555.35 97.03 554.52 97.69 553.52 97.42 553.06 97.31 552.86 97.01 552.95 96.63 552.97 96.52 553.03 96.43 553.1 96.34 553.27 96.13 553.65 95.91 553.96 95.8 554.61 95.58 555.24 95.57 555.94 95.77 556.89 96.06 557.26 97.23 556.31 97.13Z" fill="#7C5740"/></g><path d="M557 96.3C557.66 97.25 556.33 97.49 555.83 97.41 555.19 97.31 554.66 97.8 553.57 97.74 552.99 97.7 552.62 97.38 552.39 97.09 552.32 97.4 552.35 97.7 552.54 97.96 552.54 97.96 554.35 99.12 556.71 98.47 558.14 98.08 557.86 97.05 557 96.3Z" fill="#7C5740" opacity="0.5"/><path d="M555.89 95.91C555.88 95.98 555.72 96 555.53 95.97 555.34 95.94 555.2 95.87 555.21 95.81 555.22 95.75 555.37 95.73 555.56 95.75 555.75 95.79 555.9 95.86 555.89 95.91Z" fill="#FFFFFF" opacity="0.3"/></g><g><path d="M579.46 63.58C579.46 63.58 581.58 64.95 584.36 64.18 587.15 63.42 584.39 60.54 582.17 60.64 579.96 60.75 578.71 62.52 579.46 63.58Z" fill="#7C5740"/><g opacity="0.5"><path d="M582.17 60.65C579.96 60.76 578.7 62.52 579.46 63.58 579.46 63.58 581.58 64.95 584.36 64.18 587.15 63.43 584.39 60.54 582.17 60.65ZM583.8 62.62C582.74 62.5 581.81 63.23 580.7 62.95 580.18 62.81 579.95 62.48 580.06 62.07 580.1 61.94 580.15 61.84 580.22 61.74 580.43 61.5 580.84 61.25 581.18 61.13 581.91 60.9 582.6 60.88 583.38 61.12 584.46 61.42 584.87 62.73 583.8 62.62Z" fill="#7C5740"/></g><path d="M584.58 61.7C585.32 62.77 583.84 63.03 583.28 62.94 582.57 62.83 581.97 63.38 580.76 63.31 580.12 63.28 579.7 62.91 579.45 62.58 579.36 62.93 579.41 63.27 579.61 63.56 579.61 63.56 581.62 64.85 584.26 64.13 585.84 63.69 585.53 62.53 584.58 61.7Z" fill="#7C5740" opacity="0.5"/><path d="M583.33 61.26C583.32 61.33 583.14 61.36 582.93 61.33 582.73 61.29 582.56 61.2 582.57 61.14 582.58 61.08 582.76 61.05 582.97 61.09 583.18 61.12 583.34 61.2 583.33 61.26Z" fill="#FFFFFF" opacity="0.3"/></g><g><g><path d="M521.39 75.98C521.39 75.98 537.56 88.17 560.43 85.12 583.3 82.07 562.88 58.07 545.04 56.69 527.2 55.32 515.93 67.28 521.39 75.98Z" fill="#352518"/><g opacity="0.3"><path d="M545.04 56.69C527.2 55.32 515.92 67.28 521.39 75.98 521.39 75.98 537.56 88.17 560.43 85.12 583.31 82.07 562.88 58.06 545.04 56.69ZM556.87 72.88C548.36 71.01 540.47 75.59 531.74 72.35 527.65 70.84 526.02 68.14 527.15 65.17 527.47 64.31 528 63.59 528.67 62.97 530.42 61.36 534 59.89 536.75 59.37 542.73 58.22 548.35 58.8 554.5 61.26 562.91 64.63 565.37 74.76 556.87 72.88Z" fill="#352518"/></g><path d="M563.7 66.76C568.98 75.37 556.9 75.96 552.48 74.76 546.83 73.24 541.69 76.77 532.04 75.11 526.9 74.23 523.76 71.12 521.93 68.43 521.06 70.91 521.2 73.51 522.68 75.86 522.68 75.86 537.99 87.38 559.64 84.5 572.65 82.75 570.85 73.87 563.7 66.76Z" fill="#352518" opacity="0.5"/><path d="M553.96 62.35C553.85 62.84 552.41 62.87 550.76 62.43 549.11 61.98 547.88 61.23 548.01 60.74 548.14 60.26 549.58 60.23 551.22 60.67 552.86 61.12 554.09 61.86 553.96 62.35Z" fill="#FFFFFF" opacity="0.3"/></g></g><g><path d="M512.81 77.33C512.81 77.33 516.85 80.99 523.04 80.37 529.21 79.73 524.29 72.61 519.56 72.04 514.83 71.46 511.55 74.77 512.81 77.33Z" fill="#7C5740"/><g opacity="0.5"><path d="M519.56 72.04C514.83 71.46 511.55 74.77 512.81 77.34 512.81 77.34 516.85 81 523.04 80.38 529.21 79.73 524.29 72.61 519.56 72.04ZM522.36 76.81C520.12 76.18 517.92 77.41 515.65 76.4 514.59 75.92 514.22 75.13 514.58 74.29 514.68 74.05 514.84 73.85 515.03 73.67 515.53 73.22 516.52 72.84 517.27 72.72 518.89 72.45 520.39 72.68 521.97 73.45 524.16 74.5 524.59 77.45 522.36 76.81Z" fill="#7C5740"/></g><path d="M524.32 75.13C525.54 77.65 522.29 77.7 521.14 77.3 519.67 76.8 518.22 77.77 515.67 77.18 514.32 76.88 513.55 75.95 513.12 75.16 512.83 75.86 512.82 76.61 513.15 77.29 513.15 77.29 516.98 80.76 522.84 80.17 526.35 79.81 526.07 77.24 524.32 75.13Z" fill="#7C5740" opacity="0.5"/><path d="M521.82 73.76C521.77 73.89 521.39 73.88 520.95 73.74 520.53 73.6 520.21 73.36 520.25 73.24 520.3 73.1 520.68 73.1 521.11 73.25 521.55 73.39 521.86 73.61 521.82 73.76Z" fill="#FFFFFF" opacity="0.3"/></g><g><path d="M493.67 78.35C493.67 78.35 497.31 81.65 502.88 81.08 508.43 80.52 503.99 74.09 499.74 73.59 495.5 73.06 492.55 76.04 493.67 78.35Z" fill="#7C5740"/><g opacity="0.5"><path d="M499.75 73.59C495.5 73.06 492.55 76.04 493.68 78.35 493.68 78.35 497.32 81.65 502.89 81.08 508.44 80.52 504 74.09 499.75 73.59ZM502.26 77.89C500.25 77.33 498.27 78.42 496.24 77.51 495.28 77.07 494.95 76.36 495.28 75.61 495.36 75.39 495.51 75.2 495.68 75.04 496.15 74.65 497.02 74.3 497.69 74.19 499.17 73.95 500.5 74.16 501.92 74.85 503.88 75.8 504.27 78.44 502.26 77.89Z" fill="#7C5740"/></g><path d="M504.04 76.37C505.12 78.65 502.21 78.69 501.18 78.33 499.86 77.87 498.54 78.72 496.26 78.22 495.03 77.94 494.35 77.12 493.97 76.4 493.71 77.03 493.7 77.7 494 78.33 494 78.33 497.44 81.45 502.71 80.91 505.85 80.59 505.61 78.27 504.04 76.37Z" fill="#7C5740" opacity="0.5"/><path d="M501.78 75.13C501.74 75.25 501.39 75.25 501 75.11 500.61 74.98 500.34 74.78 500.38 74.66 500.41 74.53 500.76 74.55 501.15 74.68 501.53 74.8 501.83 75 501.78 75.13Z" fill="#FFFFFF" opacity="0.3"/></g><g><path d="M545.98 85.4C545.98 85.4 550.19 89.21 556.61 88.56 563.03 87.89 557.92 80.48 553 79.89 548.08 79.28 544.67 82.73 545.98 85.4Z" fill="#7C5740"/><g opacity="0.5"><path d="M552.99 79.9C548.08 79.28 544.66 82.73 545.97 85.4 545.97 85.4 550.18 89.21 556.6 88.56 563.03 87.89 557.92 80.48 552.99 79.9ZM555.9 84.85C553.59 84.21 551.3 85.49 548.94 84.43 547.83 83.92 547.44 83.1 547.81 82.23 547.94 81.98 548.09 81.76 548.3 81.58 548.84 81.13 549.85 80.71 550.63 80.6 552.33 80.33 553.87 80.54 555.51 81.36 557.77 82.46 558.23 85.51 555.9 84.85Z" fill="#7C5740"/></g><path d="M557.94 83.11C559.21 85.72 555.83 85.78 554.63 85.38 553.09 84.85 551.58 85.85 548.95 85.25 547.54 84.92 546.75 83.96 546.3 83.14 545.99 83.87 545.97 84.65 546.34 85.36 546.34 85.36 550.32 88.97 556.41 88.36 560.07 87.98 559.79 85.31 557.94 83.11Z" fill="#7C5740" opacity="0.5"/><path d="M555.35 81.68C555.29 81.83 554.89 81.83 554.46 81.66 553.99 81.51 553.68 81.26 553.73 81.13 553.78 80.99 554.18 80.99 554.62 81.15 555.06 81.29 555.4 81.53 555.35 81.68Z" fill="#FFFFFF" opacity="0.3"/></g><g><path d="M585.91 99.93C585.91 99.93 588.14 101.95 591.54 101.59 594.94 101.24 592.23 97.32 589.62 97.01 587.02 96.69 585.22 98.51 585.91 99.93Z" fill="#7C5740"/><g opacity="0.5"><path d="M589.62 97.01C587.01 96.69 585.21 98.51 585.9 99.93 585.9 99.93 588.13 101.95 591.53 101.59 594.95 101.24 592.23 97.32 589.62 97.01ZM591.17 99.64C589.94 99.29 588.72 99.97 587.48 99.41 586.89 99.14 586.69 98.71 586.89 98.25 586.95 98.11 587.04 98 587.14 97.91 587.42 97.66 587.96 97.45 588.38 97.38 589.28 97.23 590.09 97.36 590.97 97.78 592.15 98.37 592.4 99.99 591.17 99.64Z" fill="#7C5740"/></g><path d="M592.25 98.71C592.91 100.1 591.13 100.12 590.49 99.91 589.69 99.64 588.88 100.16 587.48 99.84 586.74 99.67 586.32 99.17 586.08 98.73 585.92 99.1 585.9 99.52 586.1 99.9 586.1 99.9 588.2 101.81 591.43 101.48 593.36 101.29 593.21 99.87 592.25 98.71Z" fill="#7C5740" opacity="0.5"/><path d="M590.87 97.95C590.84 98.04 590.63 98.03 590.39 97.94 590.16 97.86 589.98 97.74 590.01 97.66 590.03 97.58 590.23 97.59 590.48 97.67 590.72 97.76 590.89 97.88 590.87 97.95Z" fill="#FFFFFF" opacity="0.3"/></g></g></g></g></svg>