<svg width="178.6" height="213.02" viewBox="0 0 178.6 213.02" xmlns="http://www.w3.org/2000/svg" xmlns:xlink="http://www.w3.org/1999/xlink" overflow="hidden"><defs></defs><g><ellipse cx="86.92" cy="126.1" rx="86.92" ry="86.92" fill="#FFAE2C" transform="matrix(0.3583 -0.9336 0.9336 0.3583 -61.9522 162.075)"/><path d="M19.73 114.27C19.73 86.73 32.54 62.19 52.53 46.26 21.63 59.59 0 90.32 0 126.1 0 174.1 38.92 213.02 86.92 213.02 107.38 213.02 126.19 205.94 141.04 194.11 130.49 198.66 118.86 201.19 106.64 201.19 58.64 201.19 19.73 162.27 19.73 114.27Z" fill="#050505" opacity="0.1"/><path d="M99.74 6.29C99.74 6.29 82.22 18.69 82.22 48.46 82.22 56.37 90.59 54.51 91.06 48.46 91.52 42.41 92.92 23.5 105.01 13.11 114.78 6.21 105.79 0.71 99.74 6.29Z" fill="#826548"/><path d="M92.93 43.82C89.73 43.82 87.04 45.97 86.2 48.9 86.11 48.9 86.02 48.89 85.92 48.89 85.79 48.89 85.67 48.9 85.54 48.91 84.6 46.15 81.99 44.16 78.91 44.16 75.04 44.16 71.9 47.3 71.9 51.17 71.9 55.04 75.04 58.18 78.91 58.18 79.04 58.18 79.16 58.17 79.29 58.16 80.23 60.92 82.84 62.91 85.92 62.91 89.12 62.91 91.81 60.76 92.65 57.83 92.74 57.83 92.83 57.84 92.93 57.84 96.8 57.84 99.94 54.7 99.94 50.83 99.94 46.96 96.8 43.82 92.93 43.82Z" fill="#826548"/><path d="M114.06 19.52C110.63 19.65 88.3 33.76 86.92 41.33 85.54 48.9 87.63 46.26 87.63 46.26 87.63 46.26 97.32 31.81 107.39 27.04 118.32 21.87 117.49 19.39 114.06 19.52Z" fill="#826548"/><path d="M136.45 1.11C109.27 6.65 102.13 28.11 102.13 28.11 102.13 28.11 121.66 42.46 144.04 38.38 166.43 34.31 178.59 12.52 178.59 12.52 178.59 12.52 163.63-4.43 136.45 1.11Z" fill="#7F8B4B"/><path d="M174.79 9.31C170.46 15.51 159.35 28.88 142.3 31.98 125.67 35 110.63 27.87 103.99 24 102.6 26.53 102.04 28.21 102.04 28.21 102.04 28.21 121.56 42.56 143.95 38.48 166.33 34.41 178.5 12.62 178.5 12.62 178.5 12.62 177.23 11.19 174.79 9.31Z" fill="#050505" opacity="0.1"/><path d="M151.73 81.08C147.33 81.82 144.22 85.11 144.77 88.43 145.33 91.75 149.34 93.85 153.74 93.11 158.14 92.37 161.25 89.09 160.7 85.77 160.14 82.44 156.12 80.35 151.73 81.08Z" fill="#FFC45C"/><path d="M138.84 67.29C134.44 68.03 131.33 71.32 131.88 74.64 132.44 77.96 136.45 80.06 140.85 79.32 145.25 78.58 148.36 75.29 147.81 71.97 147.25 68.65 143.24 66.56 138.84 67.29Z" fill="#FFC45C"/><path d="M119.07 71.06C114.67 71.8 111.56 75.09 112.11 78.41 112.67 81.73 116.68 83.83 121.08 83.09 125.48 82.35 128.59 79.07 128.04 75.74 127.48 72.42 123.46 70.32 119.07 71.06Z" fill="#FFC45C"/><path d="M122.92 55.42C118.52 56.16 115.41 59.44 115.96 62.76 116.52 66.08 120.53 68.18 124.93 67.44 129.33 66.7 132.44 63.42 131.89 60.09 131.33 56.78 127.31 54.69 122.92 55.42Z" fill="#FFC45C"/><path d="M130.81 82.12C126.41 82.86 123.3 86.14 123.85 89.47 124.41 92.79 128.42 94.89 132.82 94.15 137.22 93.41 140.33 90.13 139.78 86.8 139.22 83.48 135.21 81.38 130.81 82.12Z" fill="#FFC45C"/><path d="M135.88 96.74C131.48 97.48 128.37 100.77 128.92 104.09 129.48 107.41 133.49 109.51 137.89 108.77 142.29 108.03 145.4 104.75 144.85 101.42 144.3 98.1 140.28 96 135.88 96.74Z" fill="#FFC45C"/><path d="M157.19 98.01C152.79 98.75 149.68 102.04 150.23 105.36 150.79 108.68 154.8 110.78 159.2 110.04 163.6 109.3 166.71 106.02 166.16 102.7 165.6 99.37 161.58 97.27 157.19 98.01Z" fill="#FFC45C"/></g></svg>