<svg width="126.45" height="153.39" viewBox="0 0 126.45 153.39" xmlns="http://www.w3.org/2000/svg" xmlns:xlink="http://www.w3.org/1999/xlink" overflow="hidden"><defs></defs><g><path d="M117.62 41.54C116.1 40.29 114.45 39.29 112.73 38.49 111.21 33.82 108.75 29.42 105.38 25.35 101.39 20.54 95.73 17.06 89.6 15.12 85.15 6.29 75.8-0.41 65.56 0.02 58.1 0.33 51.04 4.09 46.41 9.85 41.15 9.34 35.63 11.45 32.17 15.83 30.23 18.29 29.11 20.82 28.46 23.42 19.44 26.14 12.09 33.76 8.82 43.22 6.09 51.13 7.07 59.43 10.46 66.7 9.43 75.03 12.15 83.67 18.87 89.87 24.3 94.87 31.78 97.46 39.12 96.97 40.97 96.85 42.76 96.52 44.51 96.06 47.26 96.55 50.08 96.72 52.88 96.55 54.11 96.48 55.34 96.33 56.56 96.13 64.18 101.8 74.7 102.26 83.21 98.11 87.52 96.01 91.06 92.85 93.52 89.06 94.01 89.1 94.5 89.14 94.98 89.16 106.77 89.72 118.57 83 123.77 72.43 128.85 62.09 126.67 48.98 117.62 41.54Z" fill="#6CBE45"/><path d="M98.38 21.36C101.75 25.43 104.21 29.83 105.73 34.5 107.45 35.29 109.1 36.3 110.62 37.55 119.67 44.99 121.85 58.1 116.77 68.44 111.57 79.02 99.76 85.74 87.98 85.17 87.5 85.15 87.01 85.11 86.52 85.07 84.06 88.86 80.53 92.02 76.21 94.12 67.7 98.26 57.17 97.81 49.56 92.14 48.34 92.34 47.11 92.49 45.88 92.56 43.08 92.73 40.26 92.56 37.51 92.07 35.76 92.53 33.97 92.86 32.12 92.98 28.13 93.25 24.09 92.59 20.37 91.14 25.63 95.3 32.44 97.42 39.12 96.98 40.97 96.86 42.76 96.53 44.51 96.07 47.26 96.56 50.08 96.73 52.88 96.56 54.11 96.49 55.34 96.34 56.56 96.14 64.18 101.81 74.7 102.27 83.21 98.12 87.52 96.02 91.06 92.86 93.52 89.07 94.01 89.11 94.5 89.15 94.98 89.17 106.77 89.73 118.57 83.01 123.77 72.44 128.86 62.1 126.68 48.99 117.62 41.55 116.1 40.3 114.45 39.3 112.73 38.5 111.21 33.83 108.75 29.43 105.38 25.36 102.2 21.52 97.94 18.54 93.23 16.51 95.14 17.93 96.88 19.55 98.38 21.36Z" fill="#4D9C45"/><path d="M82.6 11.13C84.76 11.81 86.86 12.7 88.85 13.76 85.7 8.29 80.65 3.78 74.73 1.54 78.01 4.12 80.74 7.43 82.6 11.13Z" fill="#4D9C45"/><path d="M74.87 89.38C85.5 86 95.54 77.29 95.54 77.29 86.71 80.29 75.85 80.25 75.85 80.25L74.04 69.46C83.87 67.46 88.87 57.29 88.87 57.29 81.37 63.29 72.04 63 72.04 63 69.21 59.21 66.85 38.87 66.85 38.87 66.85 38.87 64.49 59.2 61.66 63 61.66 63 52.33 63.29 44.83 57.29 44.83 57.29 49.83 67.46 59.66 69.46L57.13 80.25C57.13 80.25 46.99 80.29 38.16 77.29 38.16 77.29 48.2 86 58.83 89.39 61.95 111.01 61.63 131.55 57.85 153.4 65.05 153.4 68.65 153.4 75.85 153.4 72.06 131.54 71.74 111 74.87 89.38Z" fill="#B0712A"/><g><g><ellipse cx="15.51" cy="38.87" rx="15.51" ry="15.51" fill="#F7971E" transform="matrix(0.9952 -0.0976 0.0976 0.9952 -3.7199 1.6994)"/><g><path d="M20.98 24.35C25.64 26.76 28.81 31.64 28.75 37.25 28.67 45.18 22.18 51.55 14.25 51.48 6.6 51.41 0.41 45.37 0.04 37.83 0.02 38.12 0 38.42 0 38.72-0.08 47.28 6.8 54.29 15.36 54.38 23.92 54.46 30.93 47.58 31.02 39.02 31.08 32.32 26.9 26.58 20.98 24.35Z" fill="#EE8422"/></g><path d="M9.75 51.16C9.86 51.25 9.98 51.33 10.1 51.4 10 51.47 9.91 51.55 9.83 51.63 9.46 51.98 9.69 52.54 10.19 52.76 10.72 53 11.22 52.97 11.62 52.8 12.19 53.31 13.32 52.91 13.2 52.33 13.26 52.34 13.33 52.35 13.39 52.36 13.39 52.36 13.4 52.36 13.4 52.36L13.4 52.36C13.48 52.37 13.56 52.38 13.64 52.39 14.69 52.46 14.83 51.4 13.89 51.2 13.76 51.17 13.63 51.14 13.49 51.11 13.48 51.1 13.47 51.08 13.47 51.07 13.53 51.01 13.59 50.94 13.64 50.87 13.81 50.62 13.81 50.34 13.51 50.13 13.19 49.91 12.54 49.86 12.23 50.12 12.18 50.16 12.14 50.2 12.1 50.25 12.1 50.25 12.09 50.25 12.09 50.25 11.94 50.47 11.72 50.56 11.49 50.54 11.28 50.44 11.06 50.33 10.85 50.23 9.95 49.78 9.16 50.66 9.75 51.16Z" fill="#5FB346"/><path d="M10.98 51.33C11.03 51.37 11.08 51.41 11.14 51.44 11.09 51.47 11.05 51.51 11.01 51.55 10.84 51.71 10.95 51.97 11.18 52.07 11.42 52.18 11.65 52.17 11.84 52.09 12.1 52.32 12.63 52.14 12.57 51.87 12.6 51.88 12.63 51.88 12.66 51.88 12.66 51.88 12.66 51.88 12.66 51.88 12.66 51.88 12.66 51.88 12.66 51.88 12.7 51.88 12.73 51.89 12.77 51.89 13.25 51.92 13.32 51.43 12.89 51.34 12.83 51.33 12.77 51.31 12.71 51.3 12.7 51.29 12.7 51.29 12.7 51.28 12.73 51.25 12.76 51.22 12.78 51.19 12.86 51.07 12.86 50.95 12.72 50.85 12.57 50.75 12.27 50.73 12.13 50.84 12.11 50.86 12.09 50.88 12.07 50.9 12.07 50.9 12.07 50.9 12.07 50.9 12 51 11.9 51.05 11.79 51.03 11.69 50.98 11.59 50.93 11.49 50.89 11.07 50.69 10.71 51.1 10.98 51.33Z" fill="#407839"/></g><g><path d="M5.27 36.43C5.87 34.15 8.11 31.45 10.17 30.31 12.2 29.18 10.38 26.07 8.35 27.2 6.87 28.02 5.73 29.19 4.69 30.51 3.48 32.03 2.3 33.56 1.79 35.47 1.2 37.72 4.68 38.68 5.27 36.43L5.27 36.43Z" fill="#FFF1AE"/></g><g><path d="M13.68 28.75C16.01 28.75 16.01 25.14 13.68 25.14 11.35 25.14 11.35 28.75 13.68 28.75L13.68 28.75Z" fill="#FFF1AE"/></g></g><g><g><ellipse cx="96.73" cy="73.07" rx="15.51" ry="15.51" fill="#F7971E" transform="matrix(0.9871 -0.1604 0.1604 0.9871 -10.4653 16.4567)"/><g><path d="M102.19 58.55C106.85 60.96 110.02 65.84 109.96 71.45 109.88 79.38 103.39 85.76 95.46 85.68 87.81 85.61 81.62 79.57 81.25 72.03 81.23 72.33 81.22 72.62 81.21 72.92 81.13 81.49 88.01 88.49 96.57 88.58 105.14 88.66 112.14 81.78 112.23 73.22 112.3 66.52 108.11 60.78 102.19 58.55Z" fill="#EE8422"/></g><path d="M90.97 85.36C91.08 85.45 91.2 85.53 91.32 85.6 91.22 85.67 91.13 85.75 91.05 85.83 90.68 86.18 90.91 86.74 91.41 86.96 91.94 87.2 92.44 87.17 92.84 87 93.41 87.51 94.54 87.11 94.42 86.53 94.48 86.54 94.55 86.55 94.61 86.56 94.61 86.56 94.62 86.56 94.62 86.56L94.62 86.56C94.7 86.57 94.78 86.58 94.86 86.59 95.91 86.66 96.05 85.6 95.11 85.4 94.98 85.37 94.85 85.34 94.71 85.31 94.7 85.3 94.69 85.28 94.69 85.27 94.75 85.21 94.81 85.14 94.86 85.07 95.03 84.82 95.03 84.54 94.73 84.33 94.41 84.11 93.76 84.06 93.45 84.32 93.4 84.36 93.36 84.4 93.32 84.45 93.32 84.45 93.31 84.45 93.31 84.45 93.16 84.67 92.94 84.77 92.71 84.74 92.5 84.64 92.28 84.53 92.07 84.43 91.17 83.98 90.38 84.85 90.97 85.36Z" fill="#5FB346"/><path d="M92.2 85.53C92.25 85.57 92.3 85.61 92.36 85.64 92.31 85.67 92.27 85.71 92.23 85.75 92.06 85.91 92.17 86.17 92.4 86.27 92.64 86.38 92.87 86.37 93.06 86.29 93.32 86.52 93.85 86.34 93.79 86.07 93.82 86.08 93.85 86.08 93.88 86.08 93.88 86.08 93.88 86.08 93.88 86.08L93.88 86.08C93.92 86.08 93.95 86.09 93.99 86.09 94.47 86.12 94.54 85.63 94.11 85.54 94.05 85.53 93.99 85.51 93.93 85.5 93.92 85.49 93.92 85.49 93.92 85.48 93.95 85.45 93.98 85.42 94 85.39 94.08 85.27 94.08 85.15 93.94 85.05 93.79 84.95 93.49 84.93 93.35 85.04 93.33 85.06 93.31 85.08 93.29 85.1 93.29 85.1 93.29 85.1 93.29 85.1 93.22 85.2 93.12 85.25 93.01 85.23 92.91 85.18 92.81 85.13 92.71 85.09 92.29 84.89 91.92 85.3 92.2 85.53Z" fill="#407839"/></g><g><path d="M86.49 70.63C87.09 68.35 89.33 65.65 91.39 64.51 93.42 63.38 91.6 60.27 89.57 61.4 88.09 62.22 86.95 63.39 85.91 64.71 84.7 66.23 83.52 67.76 83.01 69.67 82.42 71.92 85.89 72.88 86.49 70.63L86.49 70.63Z" fill="#FFF1AE"/></g><g><path d="M94.89 62.94C97.22 62.94 97.22 59.33 94.89 59.33 92.57 59.34 92.57 62.94 94.89 62.94L94.89 62.94Z" fill="#FFF1AE"/></g></g><g><g><ellipse cx="19.76" cy="86.39" rx="15.51" ry="15.51" fill="#F7971E" transform="matrix(0.361 -0.9326 0.9326 0.361 -67.9411 73.6263)"/><g><path d="M25.23 71.87C29.89 74.28 33.06 79.16 33 84.77 32.92 92.7 26.43 99.07 18.5 99 10.85 98.93 4.65 92.9 4.28 85.35 4.26 85.65 4.25 85.94 4.24 86.24 4.16 94.81 11.04 101.81 19.6 101.9 28.17 101.98 35.17 95.1 35.26 86.54 35.33 79.85 31.14 74.1 25.23 71.87Z" fill="#EE8422"/></g><path d="M14 98.68C14.11 98.77 14.23 98.85 14.35 98.92 14.25 98.99 14.16 99.07 14.08 99.15 13.7 99.5 13.94 100.06 14.44 100.28 14.97 100.52 15.47 100.49 15.87 100.32 16.44 100.83 17.57 100.43 17.45 99.85 17.51 99.86 17.58 99.87 17.64 99.88 17.64 99.88 17.65 99.88 17.65 99.88 17.65 99.88 17.65 99.88 17.65 99.88 17.73 99.89 17.81 99.9 17.89 99.9 18.94 99.97 19.08 98.91 18.14 98.71 18.01 98.68 17.88 98.65 17.74 98.62 17.73 98.61 17.72 98.59 17.72 98.58 17.78 98.52 17.84 98.45 17.89 98.38 18.06 98.13 18.06 97.85 17.76 97.64 17.44 97.42 16.79 97.37 16.48 97.63 16.43 97.67 16.39 97.71 16.35 97.76 16.35 97.76 16.34 97.76 16.34 97.76 16.19 97.98 15.97 98.08 15.74 98.05 15.53 97.95 15.31 97.84 15.1 97.74 14.2 97.3 13.41 98.18 14 98.68Z" fill="#5FB346"/><path d="M15.23 98.85C15.28 98.89 15.33 98.93 15.39 98.96 15.34 98.99 15.3 99.03 15.26 99.07 15.09 99.23 15.2 99.49 15.43 99.59 15.67 99.7 15.9 99.69 16.09 99.61 16.35 99.84 16.88 99.66 16.82 99.39 16.85 99.4 16.88 99.4 16.91 99.4 16.91 99.4 16.91 99.4 16.91 99.4 16.91 99.4 16.91 99.4 16.91 99.4 16.95 99.4 16.98 99.41 17.02 99.41 17.5 99.44 17.57 98.95 17.14 98.86 17.08 98.85 17.02 98.83 16.96 98.82 16.95 98.81 16.95 98.81 16.95 98.8 16.98 98.77 17.01 98.74 17.03 98.71 17.11 98.59 17.11 98.47 16.97 98.37 16.82 98.27 16.52 98.25 16.38 98.36 16.36 98.38 16.34 98.4 16.32 98.42 16.32 98.42 16.32 98.42 16.32 98.42 16.25 98.52 16.15 98.57 16.04 98.55 15.94 98.5 15.84 98.45 15.74 98.41 15.32 98.22 14.96 98.62 15.23 98.85Z" fill="#407839"/></g><g><path d="M9.52 83.95C10.12 81.67 12.36 78.97 14.42 77.83 16.45 76.7 14.63 73.59 12.6 74.72 11.12 75.54 9.98 76.71 8.94 78.03 7.73 79.55 6.55 81.08 6.04 82.99 5.45 85.25 8.93 86.2 9.52 83.95L9.52 83.95Z" fill="#FFF1AE"/></g><g><path d="M17.93 76.27C20.26 76.27 20.26 72.66 17.93 72.66 15.6 72.66 15.6 76.27 17.93 76.27L17.93 76.27Z" fill="#FFF1AE"/></g></g><g><g><ellipse cx="76.91" cy="20.41" rx="15.51" ry="15.51" fill="#F7971E" transform="matrix(0.3849 -0.923 0.923 0.3849 28.4702 83.5354)"/><g><path d="M82.38 5.89C87.04 8.3 90.21 13.18 90.15 18.79 90.07 26.72 83.58 33.09 75.65 33.02 68 32.95 61.8 26.91 61.44 19.37 61.42 19.66 61.41 19.96 61.4 20.26 61.32 28.83 68.2 35.83 76.76 35.92 85.33 36 92.33 29.12 92.42 20.56 92.48 13.86 88.3 8.12 82.38 5.89Z" fill="#EE8422"/></g><path d="M71.15 32.7C71.26 32.79 71.38 32.87 71.5 32.94 71.4 33.01 71.31 33.09 71.23 33.17 70.86 33.52 71.09 34.08 71.59 34.3 72.12 34.54 72.62 34.51 73.02 34.34 73.59 34.85 74.72 34.45 74.6 33.87 74.66 33.88 74.73 33.89 74.79 33.9 74.79 33.9 74.8 33.9 74.8 33.9L74.8 33.9C74.88 33.91 74.96 33.92 75.04 33.93 76.09 34 76.23 32.94 75.29 32.74 75.16 32.71 75.03 32.68 74.89 32.65 74.88 32.64 74.87 32.62 74.87 32.61 74.93 32.55 74.99 32.48 75.04 32.41 75.21 32.16 75.21 31.88 74.91 31.67 74.59 31.45 73.94 31.4 73.63 31.66 73.58 31.7 73.54 31.74 73.5 31.79 73.5 31.79 73.49 31.79 73.49 31.79 73.34 32.01 73.12 32.11 72.89 32.08 72.68 31.98 72.46 31.87 72.25 31.77 71.35 31.32 70.56 32.19 71.15 32.7Z" fill="#5FB346"/><path d="M72.38 32.87C72.43 32.91 72.48 32.95 72.54 32.98 72.49 33.01 72.45 33.05 72.41 33.09 72.24 33.25 72.35 33.51 72.58 33.61 72.82 33.72 73.05 33.71 73.24 33.63 73.5 33.86 74.03 33.68 73.97 33.41 74 33.42 74.03 33.42 74.06 33.42 74.06 33.42 74.06 33.42 74.06 33.42 74.06 33.42 74.06 33.42 74.06 33.42 74.1 33.42 74.13 33.43 74.17 33.43 74.65 33.46 74.72 32.97 74.29 32.88 74.23 32.87 74.17 32.85 74.11 32.84 74.1 32.83 74.1 32.83 74.1 32.82 74.13 32.79 74.16 32.76 74.18 32.73 74.26 32.61 74.26 32.49 74.12 32.39 73.97 32.29 73.67 32.27 73.53 32.38 73.51 32.4 73.49 32.42 73.47 32.44 73.47 32.44 73.47 32.44 73.47 32.44 73.4 32.54 73.3 32.59 73.19 32.57 73.09 32.52 72.99 32.47 72.89 32.43 72.47 32.23 72.11 32.64 72.38 32.87Z" fill="#407839"/></g><g><path d="M66.67 17.97C67.27 15.69 69.51 12.99 71.57 11.85 73.6 10.72 71.78 7.61 69.75 8.74 68.27 9.56 67.13 10.73 66.09 12.05 64.88 13.57 63.7 15.1 63.19 17.01 62.6 19.26 66.08 20.22 66.67 17.97L66.67 17.97Z" fill="#FFF1AE"/></g><g><path d="M75.08 10.29C77.41 10.29 77.41 6.68 75.08 6.68 72.75 6.68 72.75 10.29 75.08 10.29L75.08 10.29Z" fill="#FFF1AE"/></g></g></g></svg>