<svg width="185.67" height="159.3" viewBox="0 0 185.67 159.3" xmlns="http://www.w3.org/2000/svg" xmlns:xlink="http://www.w3.org/1999/xlink" overflow="hidden"><defs></defs><g><rect x="0" y="60.45" width="185.67" height="98.85" fill="#D1B04F"/><rect x="0" y="0" width="185.67" height="60.45" fill="#E7C157"/><rect x="11.03" y="30.22" width="163.61" height="19.2" fill="#A98A5B"/><rect x="11.03" y="11.03" width="163.61" height="19.2" fill="#BA9765"/><path d="M169.69 148.02C169.69 145.43 171.79 143.32 174.39 143.32 176.98 143.32 179.09 145.42 179.09 148.02 179.09 150.61 176.99 152.72 174.39 152.72 171.79 152.71 169.69 150.61 169.69 148.02Z" fill="#AB9140"/><path d="M169.69 71.73C169.69 69.14 171.79 67.03 174.39 67.03 176.98 67.03 179.09 69.13 179.09 71.73 179.09 74.32 176.99 76.43 174.39 76.43 171.79 76.43 169.69 74.32 169.69 71.73Z" fill="#AB9140"/><path d="M6.58 148.02C6.58 145.43 8.68 143.32 11.28 143.32 13.87 143.32 15.98 145.42 15.98 148.02 15.98 150.61 13.88 152.72 11.28 152.72 8.68 152.71 6.58 150.61 6.58 148.02Z" fill="#AB9140"/><g><defs><path d="M174.39 83.01C168.16 83.01 163.11 77.96 163.11 71.73 163.11 71.64 163.13 71.56 163.14 71.48L22.53 71.48C22.53 71.56 22.56 71.65 22.56 71.73 22.56 77.96 17.51 83.01 11.28 83.01 11.19 83.01 11.11 82.99 11.03 82.99L11.03 136.77C11.12 136.77 11.2 136.74 11.28 136.74 17.51 136.74 22.56 141.79 22.56 148.02 22.56 148.11 22.54 148.19 22.53 148.27L163.13 148.27C163.13 148.18 163.1 148.11 163.1 148.02 163.1 141.79 168.15 136.74 174.38 136.74 174.47 136.74 174.54 136.76 174.63 136.77L174.63 82.98C174.55 82.98 174.47 83.01 174.39 83.01Z" id="SVGID_1_"/></defs><clipPath id="SVGID_2_"><use width="100%" height="100%" xlink:href="#SVGID_1_"></use></clipPath><g clip-path="url(#SVGID_2_)"><rect x="11.03" y="129.07" width="163.61" height="19.2" fill="#A98A5B"/><rect x="11.03" y="109.87" width="163.61" height="19.2" fill="#BA9765"/><rect x="11.03" y="90.67" width="163.61" height="19.2" fill="#A98A5B"/><rect x="11.03" y="71.47" width="163.61" height="19.2" fill="#BA9765"/></g></g><path d="M6.58 71.73C6.58 69.14 8.68 67.03 11.28 67.03 13.87 67.03 15.98 69.13 15.98 71.73 15.98 74.32 13.88 76.43 11.28 76.43 8.68 76.43 6.58 74.32 6.58 71.73Z" fill="#AB9140"/><path d="M107.11 111.53 78.55 111.53 75.46 82.59 110.2 82.59Z" fill="#E7C157"/><path d="M98.33 106.39 95.05 97.84C96.69 96.91 97.82 95.17 97.82 93.14 97.82 90.15 95.4 87.73 92.41 87.73 89.42 87.73 87 90.15 87 93.14 87 95.16 88.12 96.9 89.77 97.84L86.49 106.39 98.33 106.39Z" fill="#69502F"/></g></svg>